<svg version="1.1" xmlns="http://www.w3.org/2000/svg" xmlns:xlink="http://www.w3.org/1999/xlink" width="773.22416" height="644.10842" viewBox="0,0,773.22416,644.10842"><g transform="translate(44.92273,144.82829)"><g data-paper-data="{&quot;isPaintingLayer&quot;:true}" fill="#ff0000" fill-rule="nonzero" stroke="none" stroke-width="0.5" stroke-linecap="butt" stroke-linejoin="miter" stroke-miterlimit="10" stroke-dasharray="" stroke-dashoffset="0" style="mix-blend-mode: normal"><path d="M-24.1482,55.47425c9.58111,5.22272 18.79607,11.41031 27.67364,19.32903c0,0 1.34209,1.19713 0.61004,3.39187c-0.73205,2.19474 -2.07414,0.99761 -2.07414,0.99761c-8.71856,-7.77688 -17.76721,-13.84608 -27.17642,-18.97509c-6.47512,-3.52963 -13.0498,-7.11476 -19.80765,-8.88416c0.79686,-1.47547 1.53358,-2.96257 2.18098,-4.44778c6.32755,1.93824 12.49982,5.26679 18.59354,8.58852z"/><path d="M635.58791,174.65174c0,0 -2.49509,0.15666 -2.65175,-2.33843c-0.15666,-2.49509 2.33843,-2.65175 2.33843,-2.65175c9.27359,-0.58197 18.44319,-0.53657 27.63166,-0.32206c-1.30318,1.69756 -2.84568,3.22387 -4.15967,4.91308c-7.69478,-0.12947 -15.38954,-0.08887 -23.15867,0.39916z"/><path d="M294.15781,499.062c-2.32218,-0.92598 -1.3962,-3.24817 -1.3962,-3.24817l1.63429,-4.09847c4.76573,-11.92435 7.89461,-24.73616 10.30104,-37.47408c1.08183,-0.16774 2.16535,-0.34198 3.20376,-0.34198c0.62815,0 1.27731,0 1.94399,0c-2.50405,13.46842 -5.77816,27.03614 -10.80442,39.66806l-1.63429,4.09847c0,0 -0.92598,2.32218 -3.24817,1.3962z"/><path d="M295.63354,352.90794c0,0 -0.94419,-2.31485 1.37066,-3.25904c2.31485,-0.94419 3.25904,1.37066 3.25904,1.37066c4.8473,11.88506 8.49667,23.96383 12.19629,36.158c-1.66435,-2.04239 -3.35964,-4.05821 -5.12223,-6.01622c-0.99647,-1.10695 -1.96997,-2.25193 -2.97458,-3.36417c-2.61106,-8.37243 -5.37953,-16.67769 -8.72917,-24.88923z"/><path d="M356.30078,-144.26586c1.99543,1.50606 0.48937,3.5015 0.48937,3.5015l-2.65808,3.52178c-9.85295,13.03329 -17.52927,28.15164 -24.32295,42.94811c-0.60799,1.32419 -1.28161,2.66573 -1.96614,4.01962c-1.62433,-0.46276 -3.24904,-0.93702 -4.86395,-1.4287c0.79188,-1.57647 1.57939,-3.13787 2.28617,-4.67722c6.94693,-15.13026 14.82208,-30.53267 24.87601,-43.87395l2.65808,-3.52178c0,0 1.50606,-1.99543 3.5015,-0.48937z"/><path d="M319.43233,5.27664c0,0 0.29973,2.48197 -2.18224,2.7817c-2.48197,0.29973 -2.7817,-2.18224 -2.7817,-2.18224c-1.52988,-12.67168 -1.86665,-25.21548 -2.21445,-37.88105c0.71137,-0.36963 1.51311,-0.66781 2.44879,-0.84975c0.83167,-0.16172 1.67601,-0.16481 2.52565,-0.10554c0.34917,12.78894 0.65894,25.44644 2.20395,38.23688z"/><path d="M318.68555,-58.87893c-0.31491,-0.17751 -0.61829,-0.37226 -0.9128,-0.58026c0.63067,-0.31559 1.25787,-0.63867 1.88245,-0.96687c-0.11646,0.6269 -0.2333,1.25458 -0.34897,1.88277c-0.20851,-0.10815 -0.41543,-0.21994 -0.62068,-0.33564z"/><path d="M-3.28952,355.03172c0,0 1.30508,-2.13232 3.4374,-0.82724c2.13232,1.30508 0.82724,3.4374 0.82724,3.4374c-7.0039,11.44262 -14.95381,21.95647 -22.93309,32.63663c-0.70112,-1.11322 -1.51113,-2.99406 -2.46932,-5.04531c7.37022,-9.85392 14.6645,-19.62433 21.13777,-30.20148z"/><path d="M627.18926,355.56865c0,0 -2.19422,-1.19808 -0.99613,-3.39231c1.19808,-2.19422 3.39231,-0.99614 3.39231,-0.99614c7.86711,4.29589 15.34101,9.03407 22.73439,13.92531c-0.5004,1.71507 -0.5004,3.073 -0.5004,3.073c0,0.84704 -0.1467,1.70926 -0.06769,2.54814c-7.99118,-5.32754 -16.04239,-10.50622 -24.56248,-15.158z"/><path d="M726.55384,474.35885c-2.38513,0.74906 -3.1342,-1.63609 -3.1342,-1.63609l-1.32203,-4.20958c-0.85706,-2.73653 -1.80535,-5.4558 -2.83021,-8.15595c0.00415,-0.00194 0.00827,-0.004 0.01234,-0.00616c1.46043,-0.77525 3.10196,-1.3724 4.43635,-2.33124c1.14441,2.9762 2.20098,5.97538 3.15182,8.99525l1.32203,4.20959c0,0 0.74906,2.38513 -1.63608,3.1342z"/><path d="M640.80675,367.01565c-0.04959,0.05811 -0.09966,0.11585 -0.15015,0.17327c-0.01208,-0.00807 -0.02417,-0.01613 -0.03625,-0.0242c0.14061,-0.11591 0.25173,-0.22561 0.1864,-0.14907z"/></g></g></svg>