<svg version="1.1" xmlns="http://www.w3.org/2000/svg" xmlns:xlink="http://www.w3.org/1999/xlink" width="590.26928" height="580.57816" viewBox="0,0,590.26928,580.57816"><g transform="translate(44.61966,64.78388)"><g data-paper-data="{&quot;isPaintingLayer&quot;:true}" fill-rule="nonzero" stroke="none" stroke-width="0.5" stroke-linecap="butt" stroke-linejoin="miter" stroke-miterlimit="10" stroke-dasharray="" stroke-dashoffset="0" style="mix-blend-mode: normal"><path d="" fill="#9966ff"/><path d="" fill="#9966ff"/><path d="" fill="#9966ff"/><path d="" fill="#9966ff"/><path d="" fill="#9966ff"/><path d="" fill="#9966ff"/><path d="" fill="#9966ff"/><path d="" fill="#9966ff"/><path d="" fill="#9966ff"/><path d="" fill="#9966ff"/><path d="" fill="#9966ff"/><path d="" fill="#9966ff"/><path d="" fill="#9966ff"/><path d="" fill="#9966ff"/><path d="M301.71684,169.74388c0.03552,-0.07785 0.06434,-0.1582 0.08567,-0.24127c0.32845,-1.27973 -0.19668,-6.83103 -1.87886,-7.31192c-1.36403,-0.38995 -2.8799,0.17952 -4.32261,0.18141c-0.61972,0.00081 -1.29975,-0.20704 -1.85909,0.01439c-0.26542,0.10507 -0.02686,0.48774 -0.02579,0.73177c0.00371,0.85354 0.03367,1.70689 0.04012,2.56042c0.00999,1.32265 -0.07867,2.67301 0.19922,3.79636c0.01425,-0.00115 0.02854,-0.00219 0.04286,-0.00314l3.21195,-0.2423l0.00359,0.03279c0.0996,-0.01501 0.19967,-0.0285 0.30022,-0.0403c0.61281,-0.07199 2.49485,0.22086 4.20272,0.5218zM297.74352,176.1093c-3.80539,-0.19114 -7.24321,-1.3914 -8.59444,-4.96975c-0.48741,-1.29076 -0.40156,-4.07931 -0.39281,-5.46088c0.01199,-1.89346 -0.46404,-5.01518 1.78014,-6.47635c1.24804,-0.81259 3.04685,-0.76679 4.61559,-0.96247c0.66405,-0.08283 6.47937,0.02063 6.86093,0.18141c4.16835,1.7565 5.80202,8.7544 4.59582,12.22516c-0.0278,0.07999 -0.05698,0.15868 -0.08751,0.23611c0.49239,0.88004 -0.07954,1.82922 -0.07954,1.82922l-2.97707,1.53643c-0.15247,1.62409 -2.24758,1.79795 -2.24758,1.79795c-0.86918,0.06526 -1.7458,0.10035 -2.6104,0.08973c-0.16121,0.05271 -0.32218,0.10543 -0.48265,0.15842c-0.12683,-0.06166 -0.25366,-0.12333 -0.38048,-0.18499z" fill="#0096ff"/><path d="M256.8984,352.38756c0,0 -3.19807,0.39585 -3.78295,-1.76866c-0.24086,-0.89137 0.15982,-1.4828 0.71453,-1.87016c-0.05397,-1.76517 2.68386,-2.10405 2.68386,-2.10405l1.17827,-0.08856c6.48187,-1.87485 13.16929,-2.98342 19.74518,-4.8197c1.99256,-0.55641 3.94756,-1.21114 6.03821,-1.56629c0.64306,-0.10924 1.46334,0.49969 1.96544,0.20665c0.38299,-0.22352 -0.88325,-0.41637 -1.05408,-0.73854c-0.4309,-0.81271 -0.45963,-1.69865 -0.68852,-2.54809c-0.48232,-1.78993 -1.0205,-3.57966 -1.80581,-5.31975c-2.85868,-6.33425 -6.18559,-12.61798 -8.80164,-19.01472c-0.41682,0.0104 -0.88663,-0.03869 -1.41332,-0.17269c-3.04324,-0.77419 -1.89937,-2.83391 -1.89937,-2.83391l0.60952,-0.9486c0.15817,-0.75411 0.30607,-1.50196 0.44283,-2.24463c-0.00756,-0.02406 -0.0151,-0.04812 -0.02264,-0.07219c-0.66122,0.28762 -1.31294,0.36829 -1.31294,0.36829l-0.73323,0.07708c-3.21329,0.15295 -10.46797,-0.36091 -12.72415,1.64383c-4.14841,3.68608 -4.20447,11.45771 -11.64036,13.43818c-2.16948,0.57782 -4.98146,0.38935 -6.96377,-0.4412c-1.31539,-0.55111 -0.3899,-2.16598 -1.29067,-3.01723c-3.17975,-3.0049 -11.77027,-2.52181 -15.06126,-5.52412c-0.12508,-0.11411 -0.24379,-0.23074 -0.35687,-0.34956l-0.06885,0.03502l-2.53163,-2.27971c-0.31525,-0.27183 -0.54024,-0.59805 -0.63848,-0.9616c-0.32302,-1.19542 0.84695,-2.34174 2.61321,-2.56036c0.31693,-0.03923 0.63152,-0.04592 0.93628,-0.02359l4.27367,0.24753l-0.00094,0.00738l0.04173,-0.00484c1.09635,0.14346 3.69795,1.14467 3.28559,0.44232c-2.42282,-4.12668 -5.44431,-7.9792 -8.0869,-12.00102l-0.33379,0.1379l-2.73866,-3.03648c-0.22294,-0.2347 -0.38319,-0.50219 -0.46196,-0.79368c-0.32302,-1.19542 0.84695,-2.34174 2.61321,-2.56036c0.33065,-0.04093 0.65877,-0.04644 0.97582,-0.02053l5.47142,0.36189l-0.00434,0.0301l0.19217,-0.01392c6.55147,0.9587 12.44015,2.30844 19.14445,1.45483c0,0 1.07877,-0.13353 2.09781,0.17858c1.91151,-5.78067 -0.71246,-11.41946 -4.32981,-16.81488c-2.78177,-3.63297 -5.80485,-7.21857 -11.20909,-9.3569c-2.73887,-1.08369 -7.73196,-1.73979 -10.379,-2.46704c-1.49679,-0.41122 -3.3787,-0.64593 -4.26186,-1.56139c-1.23921,-1.28454 -2.23125,-3.01241 -1.56511,-4.47876c1.41747,-3.1202 9.84578,-2.95172 13.35842,-3.50644c4.66241,-0.73631 11.6739,-1.8879 15.42393,-4.01339c3.70889,-2.10218 7.20412,-4.77627 10.70769,-7.02458c0,0 0.79277,-0.50874 1.89493,-0.62537c-0.10146,-0.00962 -0.19573,-0.03118 -0.27973,-0.06915c-2.53214,-1.14423 -3.83745,-3.19995 -5.75271,-4.80183c0,0 -0.04844,-0.04052 -0.1212,-0.11415c-7.17274,-0.68916 -14.26439,-1.73381 -21.18712,-3.18355c-6.25669,-1.31027 -12.70788,-3.35363 -16.61029,-7.13052c-3.68223,-3.56379 -4.47229,-7.6297 -6.19165,-11.66815c-3.6172,-13.34556 2.198,-28.77883 17.96334,-37.73609c0.52662,-0.2992 1.06992,-0.58976 1.62868,-0.87183c0.09286,-0.58425 0.48824,-1.02491 0.48824,-1.02491c3.85455,-4.25933 8.90539,-8.12125 13.16206,-12.25806c1.65977,-1.61304 4.20186,-4.79675 7.91559,-4.7529c2.03102,0.02398 3.44311,1.4595 5.16468,2.18924l2.29885,2.15063c0,0 0.3909,0.39877 0.53333,0.94775c1.90052,-1.03609 3.77581,-2.11995 5.93153,-3.09101c1.91212,-0.86134 3.59588,-2.77636 5.84708,-2.46774c3.35414,0.45983 5.39887,4.38928 6.63259,6.34864l1.32547,1.28335c0,0 0.46661,0.47601 0.56599,1.10387c4.7893,-2.37592 9.62937,-4.92841 14.86909,-6.62533c1.63123,-0.52828 3.21847,-1.71497 4.984,-1.45018c4.33255,0.64982 6.54885,2.48454 8.44659,4.59002c7.87472,-3.97544 17.68975,-7.26728 26.96245,-9.2682l0.19023,0.01454l-0.01224,-0.0419l3.37702,-0.4519c0.0177,-0.00239 0.03548,-0.00469 0.05329,-0.0069c1.76624,-0.21862 3.45993,0.57323 3.78295,1.76866c0.1767,0.65394 -0.09336,1.29316 -0.66341,1.77388l-4.03188,3.43675l-0.05806,-0.03121c-1.68308,1.96304 -3.72466,3.80301 -6.23966,4.8491c0.61744,-0.046 1.23566,-0.08626 1.78423,-0.26915c2.33983,-0.78011 6.67181,-4.84838 10.28968,-1.98973c2.35963,1.86444 0.7089,4.44343 -1.34294,6.66587c1.49828,0.03155 2.81316,0.76545 3.09376,1.80389c0.07952,0.29428 0.06856,0.5856 -0.01951,0.86083l-1.21402,4.27222l-0.02695,-0.00351c-0.01103,0.06056 -0.02272,0.12108 -0.0351,0.18156c-0.59246,2.8936 -3.16291,5.73645 -5.9735,8.28022c3.85008,-1.58881 7.73645,-3.37046 11.7806,-3.97047c2.18332,-0.32393 5.46186,-1.50169 6.69608,-0.24043c1.79869,1.83807 0.18323,4.44608 -0.4665,6.60644c-0.11206,0.37263 -5.20507,7.75688 -5.51795,8.22773c-1.49544,2.25052 -2.93737,4.51452 -4.34949,6.78772c0.32317,0.03177 0.63498,0.10654 0.9316,0.23596c2.0895,0.91174 2.04577,3.23634 1.74991,4.90701c-0.21113,1.19221 -2.0319,1.97056 -3.13447,2.91124c-2.93863,2.50715 -6.08966,5.9742 -9.82269,7.94971c-1.73671,0.91906 -3.49716,2.49035 -5.68191,2.29086c-1.26606,-0.11561 -3.19521,-1.10557 -4.15655,-2.25444c-0.17855,0.13966 -0.37861,0.26488 -0.60918,0.36963c-0.76462,0.34739 -1.67773,0.46792 -2.61144,0.55695c-0.45271,0.89018 -1.05296,1.74508 -1.9464,2.53272c-0.83684,0.73773 -1.84212,1.3705 -2.89109,1.97682c0.08653,0.12288 0.16931,0.24941 0.24813,0.37984c3.78327,6.26143 -5.69835,6.77594 -12.528,6.80647c-2.37699,1.1705 -4.81584,2.18528 -7.38919,3.05514c0.10903,1.11415 0.31354,2.22472 0.61515,3.32017l0.1377,0.50962c0,0 0.05018,0.18574 0.04077,0.45835c4.42444,2.96395 10.81667,7.56394 16.86516,7.36133c3.80504,-0.12747 7.59948,-1.22209 11.40892,-1.43718c3.06963,-0.17331 6.27041,0.04516 9.19768,-0.60373c5.94821,-1.31854 11.62851,-3.4868 18.06861,-3.83545c1.93443,-0.10472 4.37588,-0.94195 5.82102,-0.06534c5.01035,3.03924 1.70262,5.16594 -0.44586,7.50615c-4.78151,8.23723 -11.70842,15.97259 -15.60617,24.48242c-2.10003,4.5849 -3.08099,9.67816 -3.23669,14.60689c3.83555,-0.76517 8.00211,-1.0734 12.01842,-1.83861c2.57617,-0.49081 4.84775,-1.65557 7.484,-1.96773c2.64894,-0.31367 5.93264,-1.51167 8.04723,-0.38723c1.83812,0.97741 0.83998,3.23398 0.14833,4.74523c-0.56865,1.24246 -2.44756,2.0059 -3.69182,2.99717c-1.91932,1.52906 -3.77265,3.09601 -5.74839,4.58769c0.60655,0.32017 1.04852,0.7864 1.19779,1.33881c0.17237,0.63792 -0.08041,1.26185 -0.62206,1.73828l-3.44478,3.0536l-0.0461,-0.02382c-0.06747,0.07467 -0.13642,0.14881 -0.20693,0.22238c-1.92844,2.01198 -9.04178,5.08468 -12.25604,5.85261c-0.97405,0.23272 -2.28542,-0.33518 -3.09547,0.09864c-0.70051,0.37516 -0.36583,1.18717 -0.43133,1.79013c-0.1711,1.57497 0.56671,5.75794 -2.01564,6.55582c-8.58131,2.65141 -9.67104,-4.64795 -13.86139,-7.63364c-0.37498,0.35942 -0.98587,0.67105 -1.97185,0.80952c-1.94047,6.95326 -3.58201,13.84697 -4.93544,20.92137c-0.52706,2.75492 -0.98688,4.81688 -0.92705,7.55959c0.00996,0.45629 -0.53779,0.95713 -0.22295,1.36066c1.0404,1.3335 7.81999,-0.31458 8.59148,-0.39033c4.81356,-0.47266 9.63057,-0.9602 14.46199,-1.35031c0.54225,-0.46714 1.1278,-0.89191 1.90389,-1.14541c1.48399,-0.48472 3.29438,-0.05975 4.94155,-0.08964c0,0 3.2488,0.08313 3.12597,2.28196c-0.06211,1.11197 -0.92365,1.64035 -1.76021,1.89102c-0.70274,1.64726 -3.4118,1.46807 -3.4118,1.46807l-1.81771,-0.16105c-0.25785,0.30854 -0.53617,0.60463 -0.92304,0.82645c-2.31041,1.3247 -6.59192,2.51497 -9.47539,3.03179c-5.02128,0.89999 -14.44217,2.77327 -19.56807,2.02244c-4.36297,-0.63907 -4.61045,-1.36698 -7.06639,-2.48117c-12.79357,6.31692 -30.12299,6.70165 -45.36545,8.58833zM296.30751,311.0378c2.01763,0.94332 1.46217,2.2051 1.06734,2.76828c-0.07899,2.40403 0.20556,4.77428 0.21113,7.18866c0.19767,4.75138 1.35092,9.11782 2.60472,13.79067c0.08517,0.31744 0.92511,3.8144 1.33579,4.12257c0.0147,0.01102 0.02973,0.02163 0.04513,0.03185c0.55766,-0.03375 1.18338,0.04007 1.82212,0.32737c0.24392,0.02399 0.47886,0.06111 0.68712,0.13276c2.45644,0.84526 3.62336,2.11788 6.41229,2.55054c0.20455,0.03173 0.40963,0.05483 0.61512,0.07034c-5.3956,-2.18986 -4.81442,-6.58129 -3.88022,-10.6858c2.21883,-9.74875 4.27782,-19.33871 7.14922,-29.02008c-3.58706,-13.30992 -7.10373,-26.7547 -9.29422,-40.18408c0,0 -0.35553,-2.18722 2.87608,-2.42785c3.23162,-0.24063 3.58715,1.94658 3.58715,1.94658c2.16777,13.38449 5.69647,26.78773 9.27473,40.05152c0.03341,0.09359 0.05726,0.1854 0.07379,0.27345c0.04699,0.17415 0.094,0.34827 0.14101,0.52238l1.9891,0.11385c2.35933,0.982 4.56435,2.30697 5.93525,3.93588c0.52022,0.61811 1.03003,1.24268 1.48235,1.88498c0.62596,-2.28558 2.80459,-5.14343 2.91391,-5.21813c1.25847,-0.85988 3.51715,-0.49375 5.18714,-0.92656c3.40911,-0.88354 5.54171,-2.63488 8.24332,-3.82591c-0.31654,-0.27225 -0.54246,-0.59922 -0.64094,-0.96371c-0.13724,-0.50787 -0.00498,-1.00688 0.32797,-1.42966l2.00232,-2.6021l0.1369,0.04826l0.10987,-0.31914c1.99453,-1.41656 3.9238,-3.44531 6.02165,-5.23437c-3.50405,0.80194 -7.41521,1.21692 -10.70928,1.76161c-2.14219,0.35423 -4.18521,0.45436 -6.01166,0.85008l0.23546,0.79155c0,0 0.58488,2.16451 -2.61321,2.56036c-1.56089,0.1932 -2.49928,-0.2235 -3.05098,-0.70079c-0.82845,0.25691 -1.97651,0.34181 -3.24516,-0.35436c-2.52535,-1.3858 -0.47782,-3.095 -0.47782,-3.095c0.76791,-0.6005 1.58885,-1.11241 2.45379,-1.55287c-0.07795,-6.00223 0.97769,-12.34057 3.54095,-18.01074c3.97125,-8.78478 11.0726,-16.78662 16.08553,-25.26006c0.38859,-0.3238 0.75764,-0.65911 1.14425,-0.98408c-1.88766,0.63632 -5.08975,0.80219 -6.42934,1.04627c-5.97741,1.08909 -10.92546,2.971 -17.18633,3.44122c-4.98267,0.37423 -10.85025,1.34082 -15.83549,1.4084c-9.0584,0.1228 -16.91421,-5.83658 -22.93654,-9.60644c0,0 -2.02814,-1.26962 -0.61603,-2.7335c-0.15925,-0.64311 -0.29163,-1.28993 -0.39727,-1.93895c-2.50097,0.57601 -5.15147,1.04511 -8.00188,1.41479c-0.90896,0.46999 -2.04109,0.49163 -2.04109,0.49163c-6.37842,0.12075 -12.78088,0.01451 -19.14721,-0.35271c0.31796,0.23748 0.66523,0.45475 1.05518,0.6428c1.24026,0.5981 3.58738,0.31062 4.17026,1.26284c1.73928,2.84143 -0.30473,5.08159 -1.86865,7.3908l-1.19027,1.21888c0,0 -1.84782,1.81045 -4.52276,0.55982c-0.37781,-0.17664 -0.66539,-0.36444 -0.8807,-0.55674c-3.59666,2.54645 -7.46695,5.33116 -11.86523,6.67776c-3.25897,0.9978 -6.78002,1.54511 -10.15472,2.34759c-2.72424,0.6478 -7.98535,1.95536 -11.33498,1.70507c0.39804,0.07018 0.79741,0.14412 1.03343,0.1933c2.82101,0.58784 8.55803,1.6751 11.26362,2.75404c6.60251,2.63296 10.37561,6.7843 13.81166,11.24596c4.53925,6.77473 7.40886,13.79396 4.30155,21.08156l-0.24295,1.31706c0,0 -0.45647,2.17862 -3.67537,1.86967c-1.65958,-0.15927 -2.34218,-0.81554 -2.61408,-1.41398c-0.13387,0.02559 -0.21489,0.03562 -0.21489,0.03562c-7.29414,0.88143 -13.52114,-0.2645 -20.56709,-1.32364c3.6197,2.50045 5.9587,6.94544 7.11758,9.9619c0.60991,1.58754 2.39025,3.2061 1.71681,4.78183c-0.68745,1.60855 -1.94542,2.35789 -3.44333,2.67413c1.86412,0.64747 3.57213,1.35685 4.65283,1.81067c1.95864,0.82252 4.12958,1.56276 5.55124,2.79079c0.63174,0.5457 0.0199,1.38717 0.08638,2.07897c0.08667,0.90222 1.53636,-1.48216 2.20565,-2.26463c2.11168,-2.46877 2.70507,-4.02026 4.5026,-6.60782c0.87567,-1.26052 1.42958,-2.68189 2.78744,-3.72858c4.12814,-3.1821 11.5033,-2.83601 17.119,-3.10342l0.01973,-0.01612c0,0 1.14253,-0.14142 2.18667,0.207c0.21212,-0.26784 0.5333,-0.52256 1.0153,-0.71757c0.75063,-6.2687 0.53242,-12.31493 -1.22715,-18.82683c-0.73398,-2.71638 -1.05166,-5.57899 -3.08952,-8.04664c-2.48103,-3.0043 -5.85878,-6.18968 -8.93598,-8.95105c0,0 -1.95334,-1.75897 0.64553,-3.08102c2.59889,-1.32205 4.55222,0.4369 4.55222,0.4369c3.22474,2.91309 6.91384,6.32454 9.46228,9.50755c2.37158,2.9621 2.88866,6.11199 3.76158,9.34255c2.22805,8.24565 2.1347,15.82596 0.72528,23.92431c3.07298,9.11234 8.70874,17.70659 11.81367,26.81525c0.57008,1.67238 3.15835,8.06656 1.73312,9.56116c-0.2414,0.25315 -3.68377,1.1937 -6.66245,1.97476c4.20182,-0.80446 8.21172,-1.87312 11.83794,-3.38467c-1.41621,-1.62528 -1.87176,-3.95196 -2.34927,-5.70754c-1.33431,-4.90557 -2.50115,-9.5246 -2.71009,-14.51798c-0.0019,-2.68426 -0.32483,-5.31081 -0.18117,-7.99261l0.88147,-1.46892c0,0 1.84782,-1.81045 4.52276,-0.55982zM259.2691,241.43053c-0.29012,-0.31403 -0.99394,-0.0729 -1.62352,0.0159c0.51612,0.00745 1.07774,0.11469 1.64469,0.39671c0.08925,-0.14038 0.10275,-0.27848 -0.02117,-0.41263zM250.20512,164.63134l-0.92397,-1.1371c-0.40257,-0.41177 -0.55327,-1.01711 -1.2077,-1.23531c-0.33321,-0.1111 -0.16058,0.49959 -0.34887,0.7163c-0.64367,0.74086 -1.41334,1.42817 -2.13052,2.13743c-0.99548,0.98448 -2.04995,1.94207 -3.00736,2.94369c-1.15606,1.20944 -2.43748,2.33252 -3.74112,3.43705c2.49276,-0.63686 5.08092,-1.18067 7.71062,-1.63844c-0.11593,-0.12822 -0.22281,-0.27263 -0.31819,-0.43507c-1.2007,-2.04484 1.82056,-2.85751 1.82056,-2.85751c1.23787,-0.32496 2.37075,-0.7137 3.43713,-1.14604c-0.82097,-0.30592 -1.29059,-0.785 -1.29059,-0.785zM270.47514,167.65234l-1.89735,-2.00438c-0.4166,-0.67504 -0.95856,-1.32063 -1.24979,-2.02513c-0.22379,-0.54139 0.53434,-1.56557 -0.28014,-1.67582c-0.78651,-0.10647 -0.34401,1.1043 -0.85634,1.52198c-0.71244,0.58079 -1.83272,0.86529 -2.67703,1.35853c-2.37764,1.38899 -4.62102,2.63224 -7.06851,3.70618c4.9691,-0.47798 9.84881,-0.68412 14.28376,-0.66479c-0.16652,-0.12671 -0.25458,-0.21655 -0.25458,-0.21655zM307.47353,168.29235c-1.29647,1.19925 -2.914,0.99604 -3.82769,0.73767c-0.94805,0.50246 -1.8909,0.98172 -2.88399,1.43337c3.63488,0.69463 7.06278,1.7114 9.9485,3.27925c3.94529,2.14352 6.0952,5.16238 7.97426,8.2471c1.14056,-2.61778 5.31886,-5.28659 10.00454,-2.92888c0.40071,0.20163 0.54537,1.62575 0.51113,3.19216c1.27535,-1.17532 2.45044,-2.39964 3.34602,-3.683c0.72207,-1.03472 1.39031,-2.1097 2.19273,-3.12286l-0.08545,-0.01113l-1.61433,0.49564c-0.25578,0.08313 -0.532,0.1448 -0.82459,0.18101c-1.76624,0.21862 -3.45993,-0.57323 -3.78295,-1.76866c-0.09824,-0.36354 -0.05839,-0.72255 0.09431,-1.0523l0.93685,-2.18237l0.13456,0.02647l0.00624,-0.29035c0.21975,-0.25235 0.88014,-1.0463 1.63938,-1.90695c-4.49867,1.07389 -10.30866,0.96301 -11.50302,-2.31337c-0.46782,-1.28334 3.0332,-4.5406 6.05659,-6.88613c-6.13904,1.7841 -12.225,4.11242 -17.29844,6.70141c-0.12557,0.06408 -0.24993,0.12796 -0.37316,0.19161c0.13668,0.47074 0.02326,1.03608 -0.65156,1.6603zM295.84034,162.63693c-0.61399,-0.13309 -0.8474,0.67117 -1.37957,0.91748c-0.95213,0.44069 -2.05807,0.71011 -3.0346,1.12562c-2.90886,1.23772 -5.73155,2.59735 -8.54357,3.96518c0.39573,0.0318 0.79504,0.06208 1.19883,0.09018c2.21487,0.15417 4.54905,0.29933 6.91748,0.49355c0.63787,-0.5703 1.58319,-0.81167 1.58319,-0.81167c2.98075,-0.75355 5.06339,-1.72371 7.11591,-2.83001c-1.14758,-1.29514 -2.59884,-2.67747 -3.85768,-2.95035zM312.88775,217.61113c-0.33849,-1.2527 0.59012,-1.913 1.43253,-2.24701c0.24542,-0.86273 0.44568,-1.71049 0.74053,-2.39996c3.15007,-8.68714 3.4499,-18.21441 -0.90146,-26.77922c-1.57844,-3.10686 -3.57246,-6.88134 -7.47642,-8.98731c-6.2114,-3.35071 -15.82397,-3.56217 -23.29527,-4.08652c-4.18008,-0.29337 -7.74262,-0.84479 -11.96889,-0.83618c-5.06204,-0.0624 -9.68043,0.43629 -14.66275,1.06466c-8.70597,1.09801 -18.88187,2.38063 -26.2932,6.09371c1.33116,-0.18432 2.90306,0.01715 4.8829,0.71834c2.1753,0.77041 3.71811,2.19024 5.30469,3.45832c1.55475,1.24266 5.03191,4.844 4.39035,6.79974c-1.19943,3.65627 -6.80673,6.388 -11.19082,8.03465c-2.02625,0.76105 -7.73197,3.48747 -10.22294,2.46698c-0.46547,-0.19069 -0.86476,-0.52299 -1.19688,-0.94795c-0.02596,0.00152 -0.05216,0.00292 -0.07857,0.00418c-3.2431,0.1544 -3.47123,-2.04059 -3.47123,-2.04059c-0.37977,-4.27555 1.94721,-7.08164 4.13671,-10.92097c0.79195,-1.3887 1.10639,-2.92324 2.23006,-4.20286c0.11024,-0.12555 0.22015,-0.24855 0.32998,-0.36886c-11.13648,8.07965 -15.11614,20.39894 -12.24521,31.06165c1.46714,3.44606 2.0333,7.05617 5.13808,10.10269c4.26197,4.18203 12.29693,5.30815 18.95642,6.61884c11.63568,2.29009 24.50202,2.98987 36.73182,2.92625c1.02552,-0.64605 2.52185,-0.58105 2.52185,-0.58105l2.35645,0.1682c3.54002,-0.4344 6.70267,-1.03208 9.62563,-1.81265c0.07422,-0.12675 0.16804,-0.25694 0.28664,-0.38357c-0.44946,-0.02078 -0.89875,-0.04275 -1.34785,-0.06581c-15.86209,-0.40735 -31.18228,-2.32493 -46.66169,-4.5145c-5.14349,-0.72756 -14.53695,-1.39728 -18.40052,-3.96548c-9.05371,-6.01819 3.10305,-4.95431 5.02296,-8.62884c0.4324,-0.82758 -2.10943,-1.78202 -2.3435,-1.90553c-1.42693,-0.75302 -2.87725,-1.48551 -4.31657,-2.22765c-0.57697,-0.25506 -1.19722,-0.67678 -1.3554,-1.34086c-0.15081,-0.40481 -0.12499,-0.88515 0.2971,-1.41267c0.3464,-0.5522 0.88528,-0.86526 1.44699,-1.03777c0.86853,-0.33121 1.74507,-0.26438 2.40003,-0.11705c10.75304,1.85035 22.7351,0.11129 33.45387,-1.21451c7.08687,-0.87658 14.69554,-1.35861 21.63603,-2.66449c3.0403,-0.57205 4.87273,-2.19771 7.33167,-3.37494l0.80894,-0.94084c0,0 1.72612,-1.69122 4.25685,-0.67534c1.373,-0.39309 2.61039,-0.74575 2.80063,-0.80012l1.05631,-0.18402c0,0 3.19807,-0.39585 3.78295,1.76866c0.58488,2.16451 -2.61321,2.56036 -2.61321,2.56036l0.30334,-0.09082c-1.66322,0.47534 -3.4099,0.83485 -5.04148,1.35296c-1.27168,6.62334 7.45431,13.46415 14.55043,17.24255c1.39598,0.7433 2.89215,1.34369 4.28747,2.01727c0.74105,-0.43774 1.45087,-0.89566 2.08048,-1.40622c0.27902,-0.22626 0.51799,-0.48411 0.72544,-0.76478c-0.09307,-0.15768 -0.16864,-0.33459 -0.22227,-0.53303zM322.57011,211.84189c-0.1725,0.03047 -0.34576,0.06111 -0.51902,0.09097c-0.01861,0.06195 -0.03735,0.12389 -0.05623,0.1858c0.1917,-0.09439 0.38342,-0.18754 0.57523,-0.27679zM335.16456,203.08839c2.80545,-4.57263 5.76219,-9.08812 8.80774,-13.59206c0.25216,-0.37292 1.21952,-2.08242 2.36026,-3.56467c-1.28216,0.42794 -2.66751,0.75873 -3.93373,1.19591c-4.35402,1.50332 -10.94748,4.5499 -16.33017,3.91341c-0.21361,0.06074 -0.44015,0.10685 -0.67745,0.13622c-1.09732,0.13582 -2.16661,-0.11836 -2.89664,-0.61705c1.04086,3.59325 1.45545,7.25329 1.32916,10.91517c4.10974,-1.54036 9.18042,-0.80715 11.34081,1.61307zM330.01516,205.81149c-0.08891,-0.1957 -0.17732,-0.39146 -0.26538,-0.58721c-0.31908,-0.70919 -2.49414,-0.21766 -3.25236,0.31733c-0.47581,0.33571 -0.75413,0.7658 -0.99743,1.21299c0.69413,-0.07609 1.3944,-0.14479 2.05188,-0.28778c0.84164,-0.18305 1.65893,-0.40793 2.46329,-0.65533zM326.28761,211.30986c1.5523,0.57865 1.51723,2.23292 1.77113,3.59111c0.77334,-0.87999 2.29914,-1.71806 2.63227,-1.99519c0.35505,-0.29537 0.70673,-0.59267 1.05659,-0.89101c-0.41548,-0.29837 -0.71268,-0.67867 -0.82976,-1.11201l-0.14245,-0.52719c-1.55814,0.36316 -3.17399,0.70883 -4.48777,0.93429zM238.12668,190.42091c0.19039,-0.22514 0.35563,-0.45747 0.4913,-0.69706c0.19358,-0.34188 -0.45287,-0.66687 -0.735,-0.97925c-0.34693,-0.38414 -5.23194,-5.52826 -6.11215,-4.97531c-1.86705,1.17286 -1.79268,3.22764 -2.69796,4.83917c-0.37007,0.65876 -0.76314,1.27773 -1.15031,1.87619c2.81534,1.59501 3.2897,1.89272 7.37149,1.31415l-1.11611,-0.339c0,0 1.37815,-1.73259 3.94874,-1.03888zM286.70884,213.60846l-2.63538,0.3262c-1.03975,0.04606 -2.12486,-0.07257 -3.11922,0.13817c-1.28639,0.27263 0.6522,1.81293 0.47921,2.71772c-0.56175,2.93819 -3.42177,7.8997 -8.75563,8.3858c5.03022,0.44495 10.10568,0.76655 15.29322,0.89879c3.99766,0.2076 8.04898,0.40205 12.07951,0.35938c1.76824,-0.93964 3.51468,-1.98303 5.28689,-3.13697c-3.36995,-1.91178 -7.27588,-3.44494 -10.23508,-5.71565c-2.14457,-1.6456 -4.15118,-3.50489 -5.80269,-5.49794c-0.47492,1.26259 -2.5908,1.52449 -2.5908,1.52449zM263.15316,217.83975c-0.97288,-0.8615 -3.20893,0.1225 -4.78155,0.32955c-2.60788,0.34335 -6.07462,0.80824 -8.7023,0.75758c-5.66854,-0.10928 -11.46701,-1.74916 -16.96658,-2.98826c-1.19644,1.26065 -3.0874,2.74456 -4.87619,3.01914c1.28303,0.34635 2.51839,0.78376 3.84359,1.04592c5.24038,1.03668 10.82882,1.5494 16.17554,2.25925c7.29318,0.96828 14.45134,1.90674 21.6743,2.61797c-2.80414,-1.13676 -4.84544,-5.69396 -6.36679,-7.04114zM249.95421,214.53028c5.37357,0.08757 12.51396,-2.88146 17.32324,-0.09278c1.57489,0.91321 1.98158,2.46846 3.08999,3.65478c0.82581,0.88385 1.80502,1.79385 1.99557,2.83163c0.03051,0.16619 0.00731,-0.34377 0.10649,-0.4972c0.36129,-0.55883 0.90844,-1.05734 1.26142,-1.61859c0.47483,-0.755 1.10967,-1.50265 1.21567,-2.32006c0.10591,-0.81667 -0.87624,-1.6274 -0.60025,-2.42564c1.50645,-4.35686 2.94651,-3.52717 8.55737,-4.45678l2.63538,-0.3262c0,0 0.88172,-0.10914 1.80389,0.10054c-1.07178,-1.73198 -1.83559,-3.53131 -2.16882,-5.35287c-1.305,0.66139 -2.71062,1.25246 -4.53326,1.62911c-7.05371,1.45768 -15.07429,1.87967 -22.32776,2.77681c-8.23536,1.0186 -16.91133,2.12395 -25.42306,2.0307c0.31332,0.33749 0.57627,0.6917 0.77552,1.06517c5.22984,1.16775 10.92644,2.914 16.28862,3.00138z" data-paper-data="{&quot;index&quot;:null}" fill="#1a3ea9"/><path d="M295.25528,280.24538c-0.02063,1.24902 -0.65505,1.86363 -1.28472,2.16598c0.02606,0.32557 0.05066,0.65053 0.07397,0.97511c0.71028,0.43404 1.32738,1.11937 2.14444,1.26545c2.47522,0.44255 4.62955,-3.70946 6.95181,1.33876c0.74372,1.61673 -0.96505,3.42699 -1.52064,5.11763c-1.35048,4.10958 -3.25919,13.12189 -9.84341,7.87167c-1.40227,-1.11817 -1.55451,-3.25347 -2.03064,-4.98261c-1.12096,-4.0709 -0.53468,-9.32333 -0.97737,-13.55825l4.0282,-2.73469c0,0 2.49966,0.04128 2.45838,2.54094zM294.35907,289.24021c0.01208,0.29243 0.02391,0.58568 0.03561,0.87992c0.03752,0.94455 0.10473,1.89013 0.23959,2.82575c0.12697,0.88086 0.69384,3.49036 0.55974,2.61056c-0.15987,-1.0488 0.33316,-4.08099 1.4166,-5.9123c-0.39306,0.03899 -0.78676,0.0284 -1.16704,-0.04812c-0.37589,-0.07563 -0.73507,-0.20111 -1.08448,-0.35582z" fill="#1a3ea9"/><path d="M221.63038,225.17223c-3.28385,3.76668 -5.95174,8.07004 -9.21933,11.85193c-0.05482,0.06344 -0.10895,0.12556 -0.16244,0.18641c0.26687,0.12781 0.53427,0.2538 0.80222,0.37778c1.45115,0.67145 2.93048,1.29735 4.42953,1.89052c4.19973,-2.39054 8.36691,-4.83336 12.3641,-7.47711c-2.6073,-2.42944 -5.17025,-4.90544 -7.70414,-7.41131c-0.17056,0.19354 -0.34054,0.38747 -0.50994,0.58178zM206.46139,242.96406c-0.61498,0.72622 -1.71857,2.55632 -2.74058,4.19388c0.3943,-0.1685 0.78861,-0.337 1.18291,-0.50551c2.33224,-1.37596 4.69804,-2.72108 7.07259,-4.06218c-0.31802,-0.14142 -0.63485,-0.2848 -0.95042,-0.43028c-0.87735,-0.40447 -1.7489,-0.82997 -2.61596,-1.27028c-0.57139,0.54206 -1.1966,1.18641 -1.94854,2.07437zM250.09391,216.84112c3.23048,-2.42286 6.45491,-4.85302 9.67445,-7.28926c-3.63075,1.3749 -7.25861,2.7338 -10.84035,4.14352l-0.06893,0.00429l0.00589,0.01766l-4.44914,1.48305c-0.2642,0.09499 -0.54902,0.14675 -0.84593,0.14675c-0.99848,0 -1.86025,-0.58535 -2.26086,-1.43161c-3.20237,1.46419 -6.48144,2.6883 -9.50423,3.80612c-1.24639,0.1999 -2.53601,0.41719 -3.85616,0.63352c-0.82142,0.83676 -1.63359,1.68124 -2.43554,2.53349c2.8096,2.77606 5.6571,5.51297 8.56462,8.18393c5.44034,-3.91965 10.67713,-8.22716 16.01619,-12.23146zM313.52949,147.40601c14.63016,-11.21937 29.67688,-21.75376 45.35758,-31.48092c13.496,-8.37193 27.45533,-16.02597 41.09519,-24.16715c0.92414,-0.81704 1.83828,-1.65631 3.00197,-1.94611c0.06222,-0.0155 0.12438,-0.02747 0.18646,-0.0362l-0.02581,-0.05162l4.42715,-2.21358c0.34741,-0.18291 0.74312,-0.28642 1.16302,-0.28642c1.38071,0 2.5,1.11929 2.5,2.5c0,0.99801 -0.58479,1.85943 -1.43041,2.26029l-2.89002,1.44501c-1.03879,0.62399 -2.07758,1.24797 -3.11638,1.87196c-0.20994,0.12596 -0.41988,0.25188 -0.62982,0.37776c-8.7298,7.17597 -18.5564,13.31567 -27.61651,19.90441c-14.15322,10.29258 -27.39067,21.74545 -41.238,32.43144c-0.28101,0.21686 -0.56145,0.43415 -0.84133,0.65186c2.67465,-1.1083 5.36027,-2.18643 8.05568,-3.23399l0.06296,-0.00534l-0.00493,-0.0148l4.68806,-1.56269c0.2642,-0.09499 0.54902,-0.14675 0.84593,-0.14675c0.3943,0 0.76729,0.09129 1.09897,0.25387c5.95428,-3.98217 12.23132,-8.55675 18.88959,-10.68951l4.42715,-2.21358c0.34741,-0.18291 0.74312,-0.28642 1.16302,-0.28642c1.38071,0 2.5,1.11929 2.5,2.5c0,0.57191 -0.19204,1.09897 -0.51515,1.5202l-1.48935,1.9858c-3.26059,4.30019 -7.18971,7.25348 -11.40842,10.26029c11.23181,-4.2313 22.47156,-8.4418 33.69462,-12.69517c19.93077,-7.55347 39.91175,-15.34424 58.82355,-25.20551l0.08323,-0.00471l-0.01249,-0.02808l3.44111,-1.53056c0.32325,-0.15254 0.68447,-0.23783 1.06561,-0.23783c1.38071,0 2.5,1.11929 2.5,2.5c0,0.9834 -0.5678,1.83418 -1.39344,2.24239l-4.38926,2.28242c-1.2749,1.01532 -2.92779,1.43843 -4.3391,2.25357c-5.48541,3.16823 -10.8816,6.77411 -16.14306,10.30426c-19.38287,13.00483 -38.13735,26.90778 -57.64451,39.73821c-14.29549,9.40257 -28.65509,19.02496 -43.56541,27.43359c-5.55587,3.13322 -11.18913,6.1462 -16.85489,9.10453c-0.89913,1.12372 -1.79843,2.24545 -2.70165,3.36337c-2.38941,3.58993 -4.69389,7.23658 -6.94105,10.92099c2.96764,-2.02426 5.93527,-4.04027 8.89591,-6.0535c18.02905,-12.25976 35.63044,-25.35103 55.43746,-34.61374l0.06159,-0.00492l-0.00745,-0.01811l3.11588,-1.28237c0.30713,-0.13474 0.64654,-0.20951 1.00341,-0.20951c1.38071,0 2.5,1.11929 2.5,2.5c0,0.61475 -0.22189,1.17768 -0.58995,1.61307l-3.19042,3.8285l-0.00782,-0.00652c-0.01261,0.02 -0.02526,0.03997 -0.03797,0.05992c-0.00381,0.00598 -6.8346,7.32301 -6.87108,7.36206c-4.32699,4.63222 -9.19426,8.74269 -14.00462,12.87019c-13.45684,11.54655 -27.79909,22.32701 -43.09497,31.39246c0.03965,0.08899 0.07945,0.17575 0.11959,0.25977c0.44474,0.93077 0.79711,1.94811 1.08683,3.01354c12.18472,-4.36747 24.44683,-8.52305 36.78555,-12.31455c25.48421,-7.83091 50.40737,-19.33411 76.867,-23.52536l3.40088,-0.53698c0.14128,-0.02479 0.28664,-0.03772 0.43503,-0.03772c1.38071,0 2.5,1.11929 2.5,2.5c0,0.64138 -0.24153,1.22635 -0.63859,1.66891l-3.31471,3.72905l-0.01875,-0.01666c-0.04597,0.06014 -0.09249,0.11991 -0.13959,0.17928c-1.08281,1.3649 -2.74209,2.15005 -4.11468,3.22309c-4.8297,3.77567 -9.62182,6.77479 -14.95495,9.82229c-2.19397,1.2537 -4.40372,2.47899 -6.62736,3.6788c25.00317,-7.67164 50.10204,-15.02038 75.17239,-22.48399c22.14861,-5.92824 44.53682,-12.76394 67.57994,-13.76934l0.89172,5.70906c0,0 -1.44923,2.03709 -3.48632,0.58786c-0.48032,-0.34171 -0.76682,-0.71611 -0.92419,-1.08877c-21.33441,1.50693 -42.13647,7.87054 -62.70129,13.37272c-32.88207,9.79304 -65.81506,19.38135 -98.5153,29.76594c-2.78458,0.88429 -5.56647,1.7696 -8.34485,2.65985c-6.95574,3.10424 -13.9611,6.09501 -20.96441,9.05196c-11.80559,4.98419 -23.73165,9.63573 -35.68569,14.21509c0.04867,3.04811 -0.01234,6.09231 -0.16263,9.10448c-0.20157,4.04005 -0.67764,9.67809 -4.54146,12.22477c15.42737,-1.50213 30.88804,-2.75293 46.35031,-3.31898c10.00155,-0.36614 20.0706,-0.09528 30.07942,-0.14215c9.32912,-0.04368 18.65852,-0.02471 27.98774,-0.02557l0.00012,0.00004v-0.00004h3.003c1.38071,0 2.5,1.11929 2.5,2.5c0,0.82831 -0.40283,1.56254 -1.02328,2.01746l-3.97672,2.98254c-0.80512,0.76839 -1.62049,1.40214 -2.37941,1.73627c-4.61284,2.03088 -9.90884,2.75539 -14.66063,4.43546c-3.10468,1.09771 -6.09478,2.49592 -9.14273,3.74253c-8.77525,3.58907 -17.41641,7.36234 -25.96608,11.32161c-0.50046,2.01701 -2.68429,1.77436 -2.68429,1.77436c-0.29937,-0.03326 -0.59893,-0.06721 -0.89866,-0.10177c-9.20562,4.33165 -18.3115,8.88049 -27.37127,13.64879c-11.84784,6.23571 -24.07221,11.64292 -36.24053,17.22338c-11.10386,5.0923 -22.0175,11.10741 -33.36612,15.60536c-7.76372,3.0771 -15.83378,5.54535 -23.71703,8.30448c-10.30016,3.60327 -21.40307,7.50194 -32.33747,8.07204c-1.47742,0.07703 -9.56093,0.65702 -10.75412,-0.03706c-5.19265,-3.02055 -2.39215,-11.558 -1.25724,-15.6299c0.09363,-0.33594 2.7308,-9.7278 2.79764,-9.89212c0.1909,-0.46926 4.53846,-8.29905 4.85358,-8.94138c3.65567,-7.45159 6.70092,-15.27756 10.03917,-22.87787c1.45602,-2.7615 2.9254,-5.51544 4.40793,-8.26187c-3.35646,-0.63205 -6.71445,-1.26627 -10.11045,-1.52101c-5.20275,-0.39027 -9.97856,-0.07129 -15.16882,-0.97091l-3.66234,-0.64098c-1.1959,-0.18691 -2.11086,-1.22155 -2.11086,-2.46989c0,-1.22888 0.88665,-2.25067 2.05512,-2.46053l4.85749,-0.9715c2.39744,-0.99942 5.11981,-0.88389 7.69109,-1.25145c6.5882,-0.94177 13.15734,-2.00072 19.73132,-3.03664c1.47537,-0.23249 2.95142,-0.46059 4.4281,-0.68456c5.01954,-8.94518 10.17744,-17.81036 15.46646,-26.59767c-2.7671,-2.16254 -4.21738,-4.92124 -1.79286,-8.35364c1.05749,-1.49709 3.14809,-1.88011 4.68332,-2.88142c1.50471,-0.9814 3.05394,-1.89484 4.62875,-2.76231c-3.20589,-1.15109 -6.39509,-2.37541 -9.58186,-3.60115c-6.43782,-2.47621 -13.23974,-4.429 -19.77149,-6.85055c-3.60146,2.03635 -7.21148,4.05001 -10.74879,6.12661c-1.57985,0.67891 -3.15971,1.35781 -4.73956,2.03672l-4.54493,1.94783c-0.31554,0.1438 -0.66621,0.22391 -1.0356,0.22391c-1.38071,0 -2.5,-1.11929 -2.5,-2.5c0,-0.52831 0.16387,-1.01834 0.44357,-1.42204l2.76949,-4.12246l0.21575,0.14494c1.27219,-2.67779 2.77986,-5.20653 4.8306,-7.63554c0.39288,-0.46534 0.80861,-0.90963 1.23768,-1.34164c-2.07687,-1.14901 -4.14105,-2.32022 -6.2114,-3.4244c-8.80561,-4.69632 -17.22827,-10.17375 -26.0806,-14.75245c-5.96225,-3.08385 -12.21442,-5.41445 -18.08519,-8.70522c-1.9371,-1.08581 -5.5833,-2.6446 -8.40822,-4.71059c0.07793,0.1905 0.14469,0.34873 0.19731,0.46553c1.77594,3.94223 4.19848,9.01041 3.17397,13.52584c-0.3774,1.66336 -1.62373,3.00005 -2.43559,4.50008c-2.91603,0.71069 -5.78466,1.79194 -8.77865,2.00257c-6.17599,0.43448 -12.56329,0.01217 -18.75986,0.01217c-4.97446,0 -10.30411,0.48501 -15.25023,-0.01255c-4.94612,-0.49757 -10.07237,-2.03442 -14.94716,-3.02523c-14.84077,-3.01642 -29.48454,-6.87207 -43.63386,-12.35769c-3.29829,-1.2798 -6.60452,-2.5313 -9.91696,-3.76123c-5.99952,-0.43001 -11.99875,-0.9609 -18.01975,-1.55823c-10.10255,-1.00225 -19.99899,-1.88132 -29.96056,-3.87857c-4.93801,-0.99004 -9.43972,-2.4725 -14.21219,-4.06333c-4.86244,-1.62081 -8.72363,-2.46512 -12.45668,-6.07742c-1.35916,-1.44886 -3.49717,-2.44665 -4.07747,-4.34659c-0.70586,-2.31103 -1.05626,-5.41656 0.54193,-7.22898c1.43559,-1.62802 4.30072,-0.72325 6.47129,-0.7243c4.37813,-0.00213 10.39808,1.26922 14.6206,2.35281c6.43686,1.65185 12.74849,4.60364 19.02917,6.7851c13.42473,4.66278 26.79509,9.22608 40.08876,14.16054c8.41375,0.43694 16.81035,0.64941 25.10082,0.71708c1.6633,0.00012 3.3266,0.00024 4.9899,0.00036l2.57853,0.0002c0,0 2.5,0.00019 2.49981,2.50019c-0.00019,2.5 -2.50019,2.49981 -2.50019,2.49981l-2.57853,-0.0002c-1.67003,-0.00013 -3.34007,-0.00027 -5.0101,-0.0004c-3.52779,-0.02877 -7.04423,-0.10942 -10.55368,-0.23514c12.37722,4.44718 25.1134,7.69793 37.99507,10.31615c4.71045,0.95741 9.67148,2.46927 14.45173,2.95015c4.78025,0.48088 9.943,-0.01255 14.74977,-0.01255c8.27666,0 16.31492,0.10172 24.50354,-0.98827c1.90905,-5.06666 -1.66224,-10.3551 -3.45126,-14.9649c-0.68481,-1.76456 -2.04721,-3.41365 -2.02172,-5.30627c0.02533,-1.88123 0.2975,-4.97193 2.16337,-5.21314c2.42865,-0.31397 4.14894,2.6214 6.06233,4.14976c1.21323,0.96909 2.0697,2.3343 3.27726,3.31045c2.05426,1.66061 4.6196,2.56317 6.92324,3.85576c5.81877,3.26495 12.02403,5.56699 17.93654,8.62512c8.87171,4.58872 17.31201,10.07541 26.13647,14.78179c2.54849,1.3592 5.0861,2.82424 7.65075,4.2196c0.35557,-0.36072 0.70152,-0.73033 1.03238,-1.1139c3.25755,-3.77646 5.92115,-8.06897 9.19889,-11.82864c0.2431,-0.27884 0.48802,-0.55763 0.73466,-0.8363c-0.44571,-0.44929 -0.89073,-0.89928 -1.33514,-1.34986c-4.81925,0.30264 -9.60912,0.0234 -13.84411,-1.59703c-4.89701,-1.87374 -9.21855,-5.35634 -12.85708,-8.97997c-6.04022,-6.01547 -11.79965,-12.27624 -15.48941,-20.10678c-4.83505,-10.26112 -5.62234,-21.39339 -7.81203,-32.2721c-2.30083,-4.27704 -4.56547,-8.60385 -6.5618,-13.03211c-0.76229,-1.69092 -2.058,-3.28137 -2.14561,-5.1341c-0.00797,-0.16846 -0.00735,-0.33597 0.00079,-0.50266h-0.05184v-3.08914c0,-1.38071 1.11929,-2.5 2.5,-2.5c0.79812,0 1.50888,0.374 1.9666,0.9563l1.7508,2.1885l-0.09074,0.07259l0.27407,0.1893c2.7139,6.02989 4.96576,11.81111 6.89391,18.13335c0.067,0.31371 0.13252,0.62775 0.19672,0.94209c0.76628,1.43639 1.53804,2.87055 2.31063,4.30545c4.2672,7.92527 10.17002,15.12717 15.70568,22.19301c5.95635,7.60283 12.13604,14.92737 18.63739,22.01709l2.78952,-1.85968l0.01312,0.01968c0.06455,-0.04872 0.1296,-0.09685 0.19517,-0.14438c1.41492,-1.02554 3.22365,-1.35021 4.83686,-2.02201c3.93142,-1.6372 8.0828,-3.11456 12.30697,-4.2923c3.67037,-1.76255 7.47312,-3.35945 10.86902,-5.21164c0.21582,-0.11771 0.43181,-0.23534 0.64797,-0.35288c-8.92864,-1.58952 -17.59334,-4.38003 -25.53459,-8.68897c-7.5443,-4.09356 -12.55755,-10.3257 -16.2876,-17.90778c-0.66539,-1.35254 -1.64118,-2.60135 -1.96228,-4.0741c-0.78835,-3.61578 0.09782,-5.83729 0.90895,-9.18023c15.14848,-7.63348 33.96664,-3.09438 47.33862,6.53047c4.3521,-0.37783 9.05888,0.31525 13.37974,0.64337c4.54461,0.34511 6.18094,0.18205 10.58866,1.76293c5.16356,1.85196 10.60684,5.90544 14.2765,10.63162c0.51666,-0.2024 1.03353,-0.40303 1.55057,-0.60186l0.10489,0.00985l-0.01177,-0.03956l2.67206,-0.79526c0.2422,-0.07819 0.50056,-0.12043 0.76878,-0.12043c0.11814,0 0.23437,0.00819 0.34814,0.02405c8.13109,-7.03076 16.48444,-13.81338 25.08515,-20.40898zM304.1063,173.88668c-4.56944,4.1375 -9.75994,8.04066 -14.03476,12.50942c5.86646,-4.51919 11.72208,-9.09743 17.61531,-13.63706l-2.44872,0.77914c-0.25505,0.08774 -0.52877,0.13538 -0.81361,0.13538c-0.02724,0 -0.05437,-0.00044 -0.0814,-0.0013c-0.07893,0.07146 -0.15788,0.14294 -0.23683,0.21443zM310.98258,185.52276c-5.75937,4.09344 -11.82481,8.72956 -18.20334,12.36815c1.57947,1.52477 3.13638,3.07432 4.64886,4.67659c1.08913,1.15378 2.45046,2.0883 3.36152,3.37914c4.06649,-2.08201 8.13514,-4.16456 12.18943,-6.27172c0.21568,-0.31158 0.43219,-0.62266 0.64952,-0.93321c1.93934,-2.76923 3.96019,-5.48312 6.05743,-8.13477l2.62182,-3.31346c0.45738,-0.5888 1.17218,-0.96767 1.97548,-0.96767c1.38071,0 2.5,1.11929 2.5,2.5c0,0.52532 -0.16203,1.0128 -0.43883,1.41519l-2.43305,3.64957c2.51882,-1.36214 5.02614,-2.74252 7.51789,-4.1471c14.81938,-8.35358 29.0886,-17.92377 43.29544,-27.26803c16.53707,-10.87692 32.53243,-22.52604 48.82957,-33.74336c-8.71453,3.57663 -17.51412,6.95173 -26.30166,10.28208c-16.27431,6.16772 -32.56786,12.28343 -48.83987,18.45664c-12.22291,9.68812 -24.68769,18.99529 -37.4302,28.05196zM279.69042,215.66079c-0.27101,0.49657 -0.54611,0.98958 -0.82491,1.47946c2.79429,-1.37364 5.5837,-2.77774 8.37939,-4.21187c1.79553,-0.93776 3.5951,-1.87033 5.39728,-2.79983c-2.71854,-1.29417 -5.42981,-2.60383 -8.13744,-3.92115c-1.79679,3.00476 -3.22614,6.54338 -4.81432,9.45338zM270.24963,230.64886c-4.04278,6.07065 -8.02434,12.17912 -11.94242,18.32611c0.17295,0.2694 0.3098,0.5575 0.39568,0.87077c0.36507,1.33172 0.32474,2.45674 -0.00496,3.42291c1.00222,-0.82162 2.00553,-1.64199 3.01036,-2.46074c6.75381,-5.50312 13.72435,-10.7872 20.81106,-15.93116c6.59017,-6.70776 12.86217,-13.74059 18.91742,-20.7275c-0.09736,-0.032 -0.19208,-0.06982 -0.28375,-0.11304l-2.77738,-1.23439c-2.95069,1.51464 -5.89689,3.03391 -8.8323,4.56698c-5.18502,2.65984 -10.35081,5.21782 -15.5647,7.671c-1.22693,1.87066 -2.47823,3.73091 -3.729,5.60907zM230.54409,295.1082c17.02635,-2.45062 34.12704,-4.40002 51.23109,-6.2326c5.86257,-0.62813 11.73283,-1.25866 17.60902,-1.86754c-2.35876,-0.27762 -4.60998,-0.67177 -6.30275,-0.89797c-7.77207,-1.03856 -15.68062,-2.78804 -23.43167,-5.01017l-2.17023,2.47804c-0.45839,0.52892 -1.13511,0.86347 -1.88996,0.86347c-1.38071,0 -2.5,-1.11929 -2.5,-2.5c0,-0.59805 0.20999,-1.14705 0.56027,-1.57729l0.69257,-0.86571c-4.41365,-1.39754 -8.75268,-2.93373 -12.96092,-4.56304c-1.63653,-0.63468 -4.54317,-1.59962 -7.33925,-2.93667c-4.60009,7.64378 -9.10086,15.34653 -13.49816,23.10948zM275.30094,213.26653c1.56222,-2.86575 2.99098,-6.25081 4.71367,-9.25067c-0.27772,-0.13588 -0.55542,-0.2718 -0.83311,-0.40775c-5.2315,5.49367 -10.24979,11.22903 -14.74885,17.3042c-0.95144,1.28474 -1.7151,2.72822 -2.53171,4.12263c2.91468,-1.27394 5.80099,-2.58052 8.67078,-3.91924c1.65755,-2.55819 3.25729,-5.14903 4.72923,-7.84917zM253.09391,220.84112c-5.07754,3.80816 -10.06484,7.88272 -15.21732,11.64984c2.12111,1.86747 4.27784,3.69521 6.47832,5.47341c3.24297,2.62063 7.01123,4.8671 10.23387,7.54051c3.53909,-5.54071 7.12931,-11.05024 10.76874,-16.52917c-2.45558,1.0857 -4.92948,2.14845 -7.42846,3.18793l-0.0511,0.00101l0.00603,0.01623l-2.40239,0.89244c-0.28602,0.11393 -0.59803,0.17658 -0.92468,0.17658c-1.38071,0 -2.5,-1.11929 -2.5,-2.5c0,-0.55242 0.17917,-1.06299 0.48258,-1.47677l2.18962,-3.06547l0.32371,0.23122c2.48161,-4.98593 5.72714,-9.67359 9.34201,-14.11853c-3.75996,2.84891 -7.52631,5.68981 -11.30093,8.52077zM232.98003,235.92167c-3.04472,2.02847 -6.18818,3.94203 -9.37269,5.80148c5.30513,1.82418 10.71039,3.46406 15.86883,5.44797c3.77438,1.45161 7.55436,2.91196 11.36458,4.24375c0.36424,-0.5785 0.72904,-1.15666 1.0944,-1.73448c-0.87842,-0.57001 -1.81793,-1.07463 -2.66211,-1.68046c-4.11667,-2.95432 -8.16731,-6.03024 -12.00981,-9.33957c-1.21818,-1.04915 -2.42446,-2.11091 -3.62024,-3.18376c-0.22057,0.14918 -0.44155,0.29755 -0.66296,0.44506zM355.12162,145.64882c0.94946,-0.68736 1.89831,-1.35085 2.83826,-2.00801c-4.82535,2.89755 -9.49952,6.14248 -14.24126,9.14167c-1.37774,0.87143 -2.74805,1.75816 -4.11157,2.65855c2.17027,-0.82978 4.34144,-1.65722 6.51334,-2.48276c3.0137,-2.42681 6.01315,-4.86573 9.00123,-7.30945zM301.02963,184.20013c0.37156,0.43633 0.59581,1.00196 0.59581,1.61997c0,0.10519 -0.0065,0.20886 -0.01911,0.31064c10.74075,-7.15858 21.16789,-14.8427 31.3894,-22.7796c-3.4042,1.3174 -6.80056,2.65424 -10.19663,3.9926c-7.34862,5.49992 -14.56849,11.21289 -21.76947,16.85639zM221.75357,310.96374c-1.71449,3.16086 -3.41172,6.33163 -5.09144,9.51238c-3.3378,7.61266 -6.39288,15.44563 -10.05351,22.90733c-2.26001,4.60672 -4.58286,8.19457 -5.97343,13.17127c-0.86639,3.10073 -2.14376,6.11008 -2.63679,9.2916c-0.20849,1.34538 -0.12279,2.72496 -0.04344,4.08408c0.02888,0.49459 -0.10797,1.29625 0.36599,1.44052c0.95212,0.28981 1.9631,-0.3441 2.95466,-0.42975c1.64583,-0.14216 3.29951,-0.1707 4.94941,-0.25296c10.43056,-0.52005 21.12049,-4.35906 30.94054,-7.79783c7.80255,-2.73089 15.78964,-5.17294 23.47589,-8.21304c11.28432,-4.46323 22.13623,-10.46006 33.17471,-15.52237c12.08557,-5.54251 24.22895,-10.90988 35.99609,-17.10312c6.81605,-3.58739 13.6583,-7.05155 20.54905,-10.3934c-5.6145,-0.74435 -11.25136,-1.4634 -16.83958,-1.72057c-19.75334,-0.90903 -40.01492,-0.45832 -59.66248,1.48882c-10.04176,0.0148 -20.08349,0.01647 -30.12525,0.01649c-6.02591,0.00001 -12.39349,0.59344 -18.38832,-0.00851c-1.20063,-0.12056 -2.39745,-0.28324 -3.5921,-0.47096zM358.68029,307.69502c9.3728,-4.38525 18.85053,-8.54763 28.4882,-12.48943c6.31144,-2.58137 12.52095,-4.80614 19.06206,-6.7397c1.11887,-0.33074 2.07011,-0.69489 2.95581,-1.04787c-7.46993,-0.00303 -14.93993,-0.00829 -22.40974,0.02671c-9.95555,0.04663 -19.97167,-0.22533 -29.91992,0.13886c-24.8982,0.91149 -49.79257,3.61111 -74.54886,6.26357c-18.34035,1.96504 -36.63982,4.15274 -54.88387,6.81062c-1.04461,1.87202 -2.0832,3.74754 -3.11569,5.62657c0.48271,0.06175 0.96594,0.11791 1.44979,0.16741c5.84859,0.59827 12.09414,-0.00852 17.97591,-0.00853c9.95825,-0.00002 19.91649,-0.00762 29.87473,-0.01021c19.8068,-1.98719 40.27421,-2.41557 60.18952,-1.48745c8.26668,0.38526 16.63124,1.75452 24.88206,2.74947zM208.00355,303.63698c3.71291,0.36832 7.38368,1.13431 11.06137,1.80652c0.70406,-1.28761 1.41101,-2.57358 2.12082,-3.85789c-1.83296,0.27833 -3.66535,0.56169 -5.49714,0.85034c-2.56179,0.40368 -5.12265,0.80733 -7.68504,1.20103zM254.39179,206.2431c0.40779,-0.15393 0.81583,-0.30777 1.22405,-0.46161c-0.30257,0.0613 -0.60542,0.12186 -0.90852,0.18166c-0.10515,0.09332 -0.21033,0.18664 -0.31553,0.27995zM300.75029,170.18031c0.56526,-0.51183 1.13011,-1.02305 1.69472,-1.53358c-2.65881,1.42456 -5.28956,2.88785 -7.88647,4.39173c-0.75257,0.43581 -1.50366,0.87419 -2.25372,1.31438c-0.17162,0.79277 -0.71927,1.44547 -1.4469,1.76205l-3.81715,1.76176c0.21334,1.55125 0.1699,3.1654 -0.20017,4.66895c4.28718,-4.39042 9.38536,-8.26864 13.90968,-12.36529zM331.25923,144.05649c9.18026,-7.08441 18.21442,-14.31151 27.31253,-21.45865c-14.35603,8.98625 -28.44563,18.38173 -41.99961,28.77582c-5.45569,4.18378 -10.81026,8.44343 -16.07072,12.7948c5.2597,-2.78145 10.58717,-5.44257 15.97188,-7.97997c4.81227,-4.15329 9.70707,-8.21264 14.78592,-12.132zM278.10442,256.89367c0,0 0.19842,0 0.48346,0.0559c0.29601,-0.46882 0.59167,-0.93742 0.88662,-1.40586c-1.11048,0.43189 -2.21836,0.86996 -3.32233,1.31626c0.64858,0.02228 1.2993,0.03371 1.95225,0.03371zM18.30901,202.27688c-12.46723,-4.4096 -24.98198,-8.67206 -37.45384,-13.14146c-4.73447,-1.69664 -9.18095,-2.3536 -14.13789,-3.15479c-1.37596,-0.2224 -2.76296,-0.38576 -4.12719,-0.67146c-0.86101,-0.18031 -1.76013,-1.13563 -2.53772,-0.7243c-0.54825,0.29001 0.15899,1.29213 0.54193,1.78003c0.83306,1.06137 1.99573,1.81632 2.9936,2.72448c2.93623,3.07391 6.51355,3.53995 10.50228,4.86953c4.57879,1.52626 8.87553,2.95904 13.61163,3.90384c10.01932,1.99875 20.27704,3.42059 30.60719,4.41413zM309.76418,258.50218c-0.22405,-3.27612 -0.60027,-6.53323 -1.16833,-9.73512c-0.23998,-1.36035 -0.44609,-2.55922 -0.67508,-3.78065c-3.93305,1.4307 -7.86054,2.87523 -11.78429,4.32531c-7.32226,9.41972 -14.78172,18.76818 -22.75197,27.6451c6.75848,1.84155 13.6149,3.2961 20.35919,4.19733c3.19996,0.4276 6.41906,0.75836 9.64518,0.87982c1.28132,0.04824 2.65318,0.35676 3.84491,-0.1164c2.52077,-1.00082 2.55722,-6.70848 2.63736,-8.48549c0.10379,-2.30127 0.16151,-4.62057 0.15907,-6.94505c-5.94935,2.27045 -11.90243,4.53202 -17.84787,6.81678l-0.10065,-0.00933l0.01143,0.038l-2.77982,0.8362c-0.24423,0.07965 -0.50499,0.12271 -0.77581,0.12271c-1.38071,0 -2.5,-1.11929 -2.5,-2.5c0,-0.96775 0.54987,-1.80707 1.35422,-2.22257l4.35153,-2.35708c1.03843,-0.82867 7.81716,-4.04938 8.98844,-4.61955c2.9839,-1.45253 5.99676,-2.78867 9.03249,-4.09zM252.59684,258.29118c-0.07403,0.03314 -0.14806,0.06608 -0.22204,0.09885c-0.0361,0.05797 -0.0722,0.11594 -0.10829,0.17391c0.11011,-0.09093 0.22022,-0.18185 0.33033,-0.27277zM241.93325,264.40884c0.17055,0.18501 0.3442,0.36864 0.52174,0.54889c0.38472,-0.63195 0.77011,-1.2635 1.15618,-1.89464c-1.15069,0.36067 -2.2458,0.72969 -1.67792,1.34575zM267.74712,275.32624c2.32011,-4.59478 5.0041,-9.06559 7.76365,-13.48788c-2.98116,-0.12639 -5.91864,-0.46474 -8.82189,-0.9674c-2.02299,0.86829 -3.83455,1.6452 -3.84316,1.64661c-0.04449,0.00728 -0.08899,0.01433 -0.13352,0.02114l0.00666,0.02164l-4.72323,1.4533c-0.24856,0.08283 -0.51448,0.12768 -0.79088,0.12768c-0.39062,0 -0.76032,-0.08959 -1.08967,-0.24934c-2.32134,1.62345 -4.64729,3.2328 -6.99824,4.81682c1.34749,0.54548 2.71572,1.03942 4.07144,1.56444c4.70908,1.82681 9.59074,3.53387 14.55884,5.05299zM219.22685,214.5681c2.11952,-0.21573 4.22832,-0.53045 6.26114,-0.85853c1.5081,-1.52376 3.03693,-3.02192 4.56515,-4.48071c-5.16441,0.37699 -10.32438,0.57461 -15.43177,0.61068c0.29153,0.30229 0.58372,0.60416 0.87658,0.90562c1.23999,1.27653 2.48228,2.55166 3.72889,3.82293zM240.58721,208.4861c0.21677,-0.12042 0.43362,-0.24107 0.65031,-0.3622c-0.93054,0.11674 -1.86208,0.22719 -2.79432,0.33146c-0.87558,0.76985 -1.74606,1.54718 -2.61046,2.33204c1.60241,-0.68384 3.18046,-1.42688 4.75446,-2.30129zM292.44189,204.48372c-0.60605,-0.68951 -1.24436,-1.39741 -1.96145,-2.10111c-0.56022,-0.54977 -1.12585,-1.09628 -1.69578,-1.64011c-0.42079,0.44807 -0.8348,0.90228 -1.23979,1.36479c1.63077,0.7962 3.26281,1.5891 4.89702,2.37642zM250.19937,184.3731c3.26945,-1.68738 6.56862,-3.34163 9.89109,-4.94962c-1.8994,-3.76647 -6.19798,-7.49766 -8.65438,-9.98076c-2.41986,-2.44616 -4.97784,-5.38027 -7.7049,-7.64129c-2.67742,0.24339 -5.37986,0.69002 -8.20176,1.42186c-2.92485,0.75854 -5.88922,1.48934 -8.64301,2.73301c-2.06289,0.93165 -3.94205,2.35817 -6.13932,2.90176c3.3072,2.83186 7.42073,4.45459 11.21012,6.56138c5.94337,3.30435 12.05065,6.18438 18.24217,8.95365zM250.78438,161.57475c1.44088,1.46324 2.83763,2.96615 4.20751,4.35283c2.99582,3.03255 7.34146,7.03822 9.57073,11.36693c4.49086,-2.10157 9.0186,-4.10897 13.56762,-5.9903c-3.08365,-3.54258 -7.30347,-6.53782 -11.2732,-7.96378c-3.55854,-1.27826 -5.31601,-1.13147 -9.08473,-1.41081c-2.40719,-0.17842 -4.71792,-0.31284 -6.98794,-0.35488zM282.17549,180.3543c-0.3033,0.17867 -0.60675,0.35708 -0.91037,0.53519c-1.12095,1.02475 -2.23768,2.05501 -3.35025,3.09098c0.11779,0.10741 0.23618,0.21382 0.35593,0.31809c0.01833,0.01596 0.03665,0.03192 0.05496,0.04789c1.30974,-0.47979 2.57157,-1.03637 2.98989,-1.5274c0.53894,-0.63261 0.79537,-1.51806 0.85983,-2.46474zM236.67636,183.55812c-3.87621,-1.9797 -7.61997,-4.13639 -11.47066,-6.17221c-1.49163,-0.78861 -6.34067,-2.72987 -7.50146,-4.69845c-0.95535,-1.62017 -1.14114,-3.58447 -1.71171,-5.37671c6.35121,-4.84529 13.59964,-8.12085 21.35192,-9.84606c-10.97947,-6.26802 -23.48805,-7.86923 -35.98533,-4.60497c0.10635,1.64378 -0.33998,3.3356 0.02633,4.94157c0.25006,1.09632 1.05765,1.98489 1.56817,2.9868c4.38343,8.60254 9.75456,13.76969 18.58687,17.68939c4.92117,2.18397 9.98262,3.85634 15.13587,5.08065zM274.10011,195.51164c0.9039,-0.3963 2.46755,-1.10957 3.93865,-1.77584c0.41333,-0.56963 0.82575,-1.14472 1.23911,-1.72171c-0.73921,-0.67237 -1.4756,-1.34526 -2.20691,-2.01982c-0.44818,0.13768 -0.86534,0.26692 -1.23632,0.39072c-1.71791,0.19831 -3.4487,0.36695 -5.18897,0.50358c-0.67363,0.65339 -1.34575,1.30909 -2.01638,1.96713c1.82606,0.87942 3.64925,1.7658 5.47083,2.65595zM267.36283,181.61398c-0.46461,0.22034 -0.92881,0.44167 -1.39262,0.66395c0.00024,0.0106 0.00046,0.02119 0.00067,0.03179c0.05262,-0.02628 0.10524,-0.05257 0.15784,-0.07887c0.41156,-0.20579 0.82289,-0.41145 1.2341,-0.61687zM267.4179,197.85871c-0.85886,-0.41693 -1.71813,-0.83297 -2.57791,-1.24787c-0.92277,0.91226 -1.85664,1.81033 -2.79902,2.69808c1.79696,-0.43619 3.59661,-0.9162 5.37693,-1.45021zM224.86551,204.53085c3.83901,-0.20776 7.68692,-0.51041 11.52413,-0.91233c2.48657,-2.00249 5.10497,-3.95398 7.6712,-5.96327c-6.32366,2.53073 -12.73309,4.84001 -19.19533,6.87559zM250.6069,201.65199c0.80929,-0.87298 1.47178,-1.89331 1.99859,-2.95929c0.28253,-0.57169 0.47108,-1.7527 -0.11493,-1.93957c-2.26134,1.95243 -4.63017,3.81066 -6.96736,5.71463c1.7004,-0.2513 3.39555,-0.52309 5.0837,-0.81577zM212.48241,214.81649c-0.19037,-0.19578 -0.38068,-0.39161 -0.57095,-0.58748c-13.51938,-13.91947 -26.87827,-28.92965 -37.51091,-45.39107c1.08892,6.16092 2.46539,12.25287 5.18561,18.03188c3.45125,7.33204 8.88809,13.07216 14.50925,18.718c3.09601,3.1096 6.80385,6.16938 10.98363,7.79984c2.28744,0.89229 4.79868,1.31155 7.40337,1.42883zM314.62225,256.44484c18.03697,-7.58935 36.48054,-13.78744 55.08359,-19.75353c10.04882,-4.49483 19.99984,-9.20915 29.74381,-14.32388c5.11966,-2.68737 10.35618,-5.59475 15.23274,-8.69814c2.64333,-1.68218 4.78373,-3.87737 7.20618,-5.62782c-24.59755,4.63682 -47.9765,15.28631 -71.80863,22.60956c-12.52241,3.84794 -24.9258,8.12139 -37.26698,12.5646c0.24273,1.62033 0.44857,3.21969 0.70681,4.68251c0.49407,2.81387 0.85576,5.67077 1.10249,8.5467zM305.91076,208.9413c-0.65191,0.33402 -1.30387,0.66788 -1.9558,1.00169l0.20276,0.25346c0.11438,0.14049 0.21379,0.29364 0.29583,0.45702c0.00276,-0.00321 0.00551,-0.00641 0.00827,-0.00962c0.48618,-0.56542 0.96897,-1.13303 1.44893,-1.70254zM301.4318,227.55182c-1.89698,3.27295 -3.76916,6.56169 -5.63507,9.85349c0.71309,-0.37883 1.42712,-0.75601 2.14219,-1.13142c1.5871,-0.83323 3.1641,-1.6865 4.73108,-2.55878c1.46402,-1.34049 2.98087,-2.79673 4.82774,-2.76512c15.26096,-8.98589 29.55435,-19.72115 42.9592,-31.22298c4.66917,-4.00631 9.41017,-7.98987 13.607,-12.48873c0.56085,-0.60122 1.08508,-1.20407 1.59345,-1.79525c-16.30034,8.69332 -31.26534,19.72627 -46.54056,30.11341c-5.85703,3.98278 -11.78233,7.96048 -17.68502,11.99538zM306.1408,237.50185c-0.51201,0.28851 -1.02506,0.57505 -1.53917,0.85958c-0.8761,1.13426 -1.75209,2.26974 -2.62863,3.40573c1.60931,-0.59252 3.21998,-1.18204 4.83202,-1.76821c-0.24696,-0.82805 -0.51013,-1.65243 -0.66422,-2.4971zM292.73784,244.73044c-0.52759,0.28751 -1.05477,0.57573 -1.58157,0.86461c-0.04907,0.08636 -0.09815,0.17272 -0.14723,0.25908c0.41396,-0.15605 0.828,-0.31196 1.24214,-0.46772c0.1614,-0.21938 0.32358,-0.43808 0.48666,-0.65597zM287.7076,241.78525c1.48883,-2.59907 2.96633,-5.20521 4.44392,-7.81133c-1.95618,1.37423 -3.9045,2.7585 -5.84157,4.15514c-3.5759,3.64464 -7.24301,7.19745 -11.01676,10.60364c4.12741,-2.33514 8.25997,-4.66041 12.41441,-6.94745zM256.75386,192.75893c-0.1982,0.20538 -0.39824,0.40905 -0.59999,0.61112c0.92687,0.93696 1.38547,2.03226 1.5099,3.18847c0.79805,-0.74187 1.59048,-1.49036 2.37564,-2.24789c-1.09393,-0.51999 -2.18903,-1.03739 -3.28555,-1.5517z" fill="#670000"/><path d="M243.92817,259.6817c3.176,3.85805 6.98258,7.19669 10.17626,11.0412c0.05357,0.0645 0.10595,0.1281 0.15719,0.19086c0.16992,-0.24225 0.33813,-0.48531 0.50444,-0.72925c0.90073,-1.32112 1.76117,-2.67752 2.59255,-4.05875c-1.66809,-4.5354 -3.3931,-9.04729 -5.34423,-13.42451c-2.82478,2.17274 -5.6882,4.29409 -8.57631,6.38186c0.16289,0.20004 0.32626,0.39957 0.4901,0.59859zM258.98615,277.56757c0.61532,0.72593 2.23924,2.11519 3.68665,3.39235c-0.10143,-0.41663 -0.20286,-0.83326 -0.3043,-1.24989c-0.9741,-2.5266 -1.91227,-5.08125 -2.84504,-7.64386c-0.19175,0.29047 -0.38523,0.57943 -0.58058,0.86682c-0.54311,0.79898 -1.10602,1.58878 -1.68279,2.37172c0.44082,0.65268 0.9737,1.37525 1.72606,2.26286zM240.38649,230.23621c-1.85921,-3.58463 -3.72661,-7.1645 -5.60081,-10.74054c0.75973,3.8073 1.50415,7.60911 2.30627,11.37379l-0.00709,0.0687l0.01839,-0.00291l0.73196,4.63233c0.05029,0.27622 0.05456,0.56567 0.00578,0.85855c-0.16404,0.98491 -0.88301,1.73881 -1.78359,1.99494c0.91818,3.39941 1.58694,6.83503 2.19297,10.00039c-0.00758,1.2623 -0.00512,2.57009 -0.00861,3.90784c0.69044,0.94773 1.39002,1.8876 2.09893,2.81867c3.19993,-2.31535 6.36746,-4.67451 9.4798,-7.10372c-2.9726,-6.01037 -6.36124,-11.88368 -9.43398,-17.80806zM182.3166,156.25517c-8.66335,-16.27459 -16.5826,-32.84754 -23.60143,-49.91324c-6.04093,-14.68803 -11.29761,-29.71516 -17.0873,-44.50719c-0.65411,-1.04581 -1.3318,-2.08542 -1.42648,-3.2809c-0.00507,-0.06392 -0.00666,-0.1272 -0.00507,-0.18987l-0.05516,0.01698l-1.45617,-4.73066c-0.12335,-0.37274 -0.16044,-0.78008 -0.09146,-1.19427c0.22684,-1.36195 1.5148,-2.28214 2.87675,-2.05531c0.98445,0.16396 1.73809,0.88233 1.99458,1.78231l0.95058,3.08815c0.44485,1.12719 0.88969,2.25438 1.33454,3.38158c0.08976,0.22778 0.17948,0.45556 0.26915,0.68332c5.64426,9.79011 10.08613,20.49188 15.09687,30.51134c7.82751,15.65187 16.95,30.59103 25.21583,46.00579c0.16775,0.31282 0.33601,0.62515 0.50478,0.93699c-0.65383,-2.82039 -1.27609,-5.64664 -1.86659,-8.47753l0.00508,-0.06298l-0.01541,0.00243l-0.77126,-4.88109c-0.05029,-0.27622 -0.05456,-0.56567 -0.00578,-0.85855c0.06478,-0.38894 0.21611,-0.74187 0.43097,-1.04233c-2.94984,-6.5276 -6.43102,-13.4709 -7.44092,-20.38909l-1.45617,-4.73066c-0.12335,-0.37274 -0.16044,-0.78008 -0.09146,-1.19427c0.22684,-1.36195 1.5148,-2.28214 2.87675,-2.05531c0.56414,0.09396 1.05249,0.36998 1.41491,0.7579l1.71413,1.79536c3.70608,3.92276 5.97373,8.28368 8.2466,12.93906c-2.32855,-11.77435 -4.63527,-23.55312 -6.98702,-35.32246c-4.17643,-20.90091 -8.5787,-41.89033 -15.19898,-62.16525l0.00903,-0.08287l-0.02975,0.00771l-0.94443,-3.64581c-0.09736,-0.34392 -0.12215,-0.71424 -0.05953,-1.0902c0.22684,-1.36195 1.5148,-2.28214 2.87675,-2.05531c0.97004,0.16156 1.71597,0.86142 1.98299,1.74291l1.5303,4.7046c0.79207,1.42438 0.93788,3.12433 1.51008,4.65038c2.22399,5.93138 4.89434,11.84665 7.51213,17.61659c9.64374,21.25605 20.27663,42.0398 29.72791,63.38979c6.92622,15.64598 14.05875,31.39132 19.90352,47.48049c2.17788,5.99513 4.22444,12.04685 6.21175,18.12164c0.96073,1.07153 1.91948,2.1429 2.87382,3.2175c3.1486,2.94673 6.3671,5.819 9.63226,8.64093c-1.50921,-3.25988 -3.01027,-6.51839 -4.50975,-9.76956c-9.13121,-19.79822 -19.15289,-39.31119 -25.03567,-60.37084l0.00527,-0.06156l-0.01909,0.00437l-0.75304,-3.28422c-0.08245,-0.32509 -0.10044,-0.67218 -0.04181,-1.0242c0.22684,-1.36195 1.5148,-2.28214 2.87675,-2.05531c0.6064,0.101 1.12522,0.41235 1.49423,0.84694l3.25233,3.77605l-0.00772,0.00664c0.01766,0.01572 0.03528,0.03148 0.05287,0.0473c0.00527,0.00474 6.10066,7.94482 6.13319,7.98722c3.8584,5.02922 7.11338,10.50566 10.39451,15.92876c9.17885,15.17096 17.45656,31.08944 23.88589,47.66684c0.09429,-0.02449 0.18641,-0.0495 0.27589,-0.07529c0.99119,-0.28578 2.0526,-0.46623 3.15115,-0.57697c-2.30631,-12.73668 -4.3909,-25.51489 -6.10377,-38.30886c-3.53774,-26.42447 -10.79004,-52.89883 -10.57732,-79.68751l0.02904,-3.44289c-0.00124,-0.14343 0.00988,-0.28894 0.03426,-0.43532c0.22684,-1.36195 1.5148,-2.28214 2.87675,-2.05531c0.63267,0.10537 1.17001,0.43972 1.54132,0.9041l3.13381,3.88231l-0.01951,0.01576c0.05177,0.05523 0.10309,0.11093 0.15391,0.16715c1.16846,1.29233 1.67034,3.05806 2.5033,4.58829c2.9309,5.38438 5.10198,10.6041 7.2319,16.36544c0.87622,2.37013 1.72182,4.75115 2.54001,7.14169c-3.45966,-25.9238 -6.58509,-51.88895 -9.82851,-77.84484c-2.20892,-22.8216 -5.27361,-46.02864 -2.47962,-68.92383l5.77799,0.05833c0,0 1.77132,1.76421 0.00711,3.53553c-0.41598,0.41765 -0.83236,0.63875 -1.22581,0.73276c-2.01855,21.2921 0.84105,42.85697 2.8899,64.04631c4.25782,34.04416 8.30533,68.10492 13.17653,102.06691c0.4148,2.89202 0.83105,5.78156 1.25274,8.66845c1.91931,7.37122 3.71854,14.77274 5.48475,22.16669c2.97694,12.46403 5.60596,24.99223 8.15918,37.53618c3.01469,0.45276 6.0075,1.01307 8.95405,1.65618c3.95204,0.86257 9.43526,2.25843 11.31255,6.48814c1.05282,-15.46453 2.35903,-30.92062 4.34095,-46.26579c1.28198,-9.9258 3.20339,-19.81354 4.80149,-29.69406c1.48958,-9.20953 3.04101,-18.40905 4.57285,-27.61165l0.00006,-0.00011l-0.00004,-0.00001l0.49336,-2.9622c0.22684,-1.36195 1.5148,-2.28214 2.87675,-2.05531c0.81706,0.13608 1.47513,0.65406 1.82193,1.34082l2.28868,4.41268c0.62568,0.92042 1.11686,1.82883 1.32177,2.63233c1.24545,4.88381 1.09004,10.22688 1.96662,15.19012c0.57273,3.24284 1.4607,6.42202 2.18963,9.63336c2.09863,9.24566 4.40098,18.38931 6.90184,27.47327c1.90738,0.82503 1.30925,2.93932 1.30925,2.93932c-0.08199,0.28984 -0.16469,0.57975 -0.24803,0.86973c2.76041,9.79218 5.75145,19.52165 8.96654,29.2417c4.20451,12.71131 7.52993,25.65792 11.03544,38.57771c3.19887,11.78959 7.33926,23.54316 9.91164,35.47654c1.7598,8.16376 2.86869,16.52967 4.2952,24.7591c1.86211,10.75218 3.88372,22.34474 2.64968,33.22422c-0.16674,1.47 -0.92266,9.53896 -1.80334,10.60191c-3.8326,4.62585 -11.79396,0.4608 -15.62408,-1.32766c-0.31599,-0.14755 -9.14698,-4.29186 -9.29809,-4.38479c-0.43152,-0.2654 -7.44067,-5.84023 -8.0225,-6.2566c-6.74975,-4.83021 -13.96909,-9.1198 -20.91769,-13.66134c-2.48477,-1.88992 -4.95989,-3.79178 -7.42544,-5.70537c-1.17489,3.20701 -2.35217,6.41518 -3.16138,9.72319c-1.23972,5.06794 -1.70969,9.83126 -3.44978,14.8032l-1.23395,3.50727c-0.38084,1.14894 -1.55174,1.88149 -2.78312,1.6764c-1.21218,-0.20189 -2.07442,-1.24436 -2.08946,-2.43143l-0.16027,-4.95109c-0.59197,-2.52906 -0.03075,-5.19546 0.02911,-7.79218c0.15339,-6.6534 0.18807,-13.30726 0.24625,-19.9621c0.01306,-1.49352 0.03055,-2.98699 0.05223,-4.4804c-7.99898,-6.42093 -15.89632,-12.96519 -23.6953,-19.626c-2.58776,2.37422 -5.54724,3.35157 -8.53468,0.39609c-1.30301,-1.28908 -1.33737,-3.4142 -2.07285,-5.09307c-0.72086,-1.6455 -1.36737,-3.32374 -1.96432,-5.01967c-1.66214,2.97322 -3.39377,5.91794 -5.12641,8.86004c-3.50023,5.94353 -6.54396,12.33221 -10.0057,18.37737c1.417,3.88707 2.81021,7.77886 4.27746,11.60927c0.41013,1.66992 0.82026,3.33985 1.23039,5.00977l1.17468,4.80318c0.09001,0.33488 0.11142,0.69394 0.05073,1.05831c-0.22684,1.36195 -1.5148,2.28214 -2.87675,2.05531c-0.52113,-0.0868 -0.97758,-0.32895 -1.32984,-0.67117l-3.61145,-3.40913l0.17842,-0.18901c-2.4324,-1.69483 -4.67909,-3.59746 -6.73818,-6.0194c-0.39447,-0.46399 -0.76442,-0.94706 -1.12007,-1.44128c-1.4746,1.85988 -2.96902,3.7036 -4.39833,5.56441c-6.07917,7.91441 -12.86592,15.32274 -18.83675,23.30256c-4.02148,5.37459 -7.34757,11.15892 -11.55813,16.40928c-1.3893,1.73239 -3.52594,5.07296 -6.02796,7.52007c0.20071,-0.04557 0.36776,-0.08543 0.49162,-0.11815c4.18043,-1.10415 9.57774,-2.66112 13.8635,-0.9087c1.57876,0.64554 2.69253,2.09454 4.03879,3.14181c0.22196,2.99317 0.81724,6.00046 0.53313,8.98837c-0.58607,6.16345 -2.052,12.39458 -3.07003,18.50696c-0.81725,4.90687 -1.21443,10.24378 -2.51782,15.04095c-1.3034,4.79717 -3.66155,9.60128 -5.43977,14.24705c-5.41361,14.14355 -11.62267,27.95491 -19.35833,41.01075c-1.80428,3.04322 -3.58195,6.09892 -5.33937,9.16428c-1.40982,5.84735 -2.9191,11.67785 -4.4975,17.5189c-2.64837,9.80062 -5.14137,19.41817 -8.74805,28.91626c-1.78785,4.70826 -3.98974,8.90525 -6.34302,13.35152c-2.39763,4.53009 -3.86482,8.2001 -8.04133,11.28897c-1.65247,1.10266 -2.98795,3.04769 -4.95741,3.30797c-2.39559,0.31659 -5.51649,0.15203 -7.04172,-1.72221c-1.37005,-1.68355 -0.00686,-4.3611 0.3487,-6.50235c0.71718,-4.31899 2.96026,-10.04828 4.72284,-14.0354c2.68691,-6.07802 6.63552,-11.81894 9.81918,-17.65589c6.80496,-12.47628 13.50285,-24.91526 20.55426,-37.21763c1.81329,-8.22764 3.40234,-16.47525 4.83112,-24.64195c0.27338,-1.64068 0.54676,-3.28136 0.82014,-4.92204l0.42382,-2.54346c0,0 0.41091,-2.466 2.87691,-2.05509c2.466,0.41091 2.05509,2.87691 2.05509,2.87691l-0.42382,2.54346c-0.2745,1.64732 -0.549,3.29464 -0.8235,4.94196c-0.60796,3.47513 -1.26522,6.93054 -1.9658,10.37165c6.42019,-11.47842 11.71918,-23.50748 16.41814,-35.78398c1.71827,-4.48915 4.02463,-9.13439 5.28432,-13.77069c1.25969,-4.63629 1.62114,-9.80996 2.41084,-14.55142c1.35976,-8.1642 2.7807,-16.07653 3.05081,-24.33295c-4.68418,-2.71551 -10.48749,-0.06157 -15.32856,0.9458c-1.85309,0.38561 -3.7036,1.45857 -5.56632,1.12249c-1.85151,-0.33405 -4.8555,-1.11029 -4.78689,-2.99043c0.0893,-2.44723 3.26741,-3.6619 5.08935,-5.2982c1.15524,-1.03753 2.64261,-1.65808 3.80389,-2.68886c1.97554,-1.75353 3.28729,-4.13573 4.94078,-6.19571c4.17655,-5.20331 7.46676,-10.94606 11.4547,-16.27581c5.98389,-7.99729 12.78268,-15.4215 18.87487,-23.35285c1.75942,-2.29056 3.62145,-4.553 5.4192,-6.85356c-0.2974,-0.41 -0.60515,-0.81197 -0.92916,-1.20135c-3.18997,-3.83372 -6.98655,-7.16634 -10.15664,-11.01721c-0.23511,-0.28561 -0.46988,-0.573 -0.70424,-0.86207c-0.51641,0.36584 -1.0334,0.73089 -1.55087,1.09523c-0.49322,4.80349 -1.55559,9.4824 -3.84976,13.39363c-2.6528,4.52264 -6.79806,8.2133 -10.97023,11.20707c-6.92607,4.96987 -14.04798,9.62247 -22.37831,11.97563c-10.91604,3.08357 -22.02639,2.03125 -33.11702,2.40394c-4.59693,1.5669 -9.237,3.08992 -13.93306,4.33161c-1.79318,0.47413 -3.57489,1.49094 -5.41684,1.27298c-0.16748,-0.01981 -0.33261,-0.04795 -0.4957,-0.08336l-0.00852,0.05114l-3.04717,-0.50751c-1.36195,-0.22684 -2.28214,-1.5148 -2.05531,-2.87675c0.13112,-0.78728 0.61681,-1.42693 1.2664,-1.78277l2.4464,-1.36746l0.0567,0.10143l0.23175,-0.23925c6.39382,-1.68638 12.46644,-2.95785 19.01955,-3.82113c0.32045,-0.01455 0.64099,-0.02759 0.96161,-0.03927c1.54276,-0.51989 3.08423,-1.04554 4.62656,-1.5719c8.51864,-2.90719 16.59245,-7.54661 24.47172,-11.84621c8.47809,-4.62636 16.71836,-9.51874 24.77984,-14.76699l-1.37612,-3.05714l0.02157,-0.00971c-0.03745,-0.07168 -0.07424,-0.14375 -0.11035,-0.21624c-0.77915,-1.56418 -0.80225,-3.40167 -1.19989,-5.10333c-0.96907,-4.14697 -1.74433,-8.48466 -2.21208,-12.84492c-1.1356,-3.91007 -2.08605,-7.9235 -3.35517,-11.57755c-0.08065,-0.23223 -0.1612,-0.46461 -0.24163,-0.69714c-3.0348,8.54618 -7.2109,16.6347 -12.76595,23.76013c-5.27738,6.76926 -12.24846,10.69053 -20.34032,13.12424c-1.44348,0.43414 -2.83563,1.19151 -4.34112,1.26629c-3.69617,0.18361 -5.7419,-1.05549 -8.90616,-2.40481c-5.04103,-16.19674 2.528,-34.01348 14.21894,-45.62251c0.3423,-4.35504 1.79924,-8.884 2.83277,-13.09224c1.08705,-4.42616 1.19504,-6.06705 3.47857,-10.15515c2.67511,-4.78914 7.56778,-9.49252 12.83263,-12.33586c-0.11477,-0.54289 -0.22776,-1.0857 -0.33894,-1.62838l0.02695,-0.10185l-0.04096,0.00511l-0.34546,-2.76641c-0.03734,-0.25175 -0.03656,-0.51354 0.00751,-0.77812c0.01941,-0.11653 0.04658,-0.22984 0.08092,-0.33946c-5.59938,-9.17568 -10.91748,-18.52984 -16.01046,-28.09727zM206.88933,169.9008c3.33057,5.1871 6.32796,10.94831 10.03369,15.89922c-3.49399,-6.5292 -7.04801,-13.05741 -10.55777,-19.61637l0.36626,2.54345c0.04465,0.266 0.04667,0.54383 -0.00013,0.8248c-0.00448,0.02687 -0.00937,0.05356 -0.01466,0.08008c0.05752,0.0896 0.11506,0.17922 0.17261,0.26884zM219.497,165.02963c3.09162,6.35362 6.66826,13.09831 9.20949,19.98795c1.76354,-1.30751 3.54782,-2.58869 5.3768,-3.81738c1.31703,-0.88478 2.46251,-2.07408 3.88549,-2.76069c-1.38564,-4.35329 -2.77146,-8.70879 -4.18392,-13.05418c-0.27191,-0.26394 -0.5432,-0.52861 -0.81382,-0.79401c-2.41299,-2.36794 -4.758,-4.8072 -7.02907,-7.31157l-2.8377,-3.13056c-0.50566,-0.5479 -0.76195,-1.31523 -0.62997,-2.10762c0.22684,-1.36195 1.5148,-2.28214 2.87675,-2.05531c0.51818,0.0863 0.97242,0.32622 1.32387,0.66537l3.20026,2.99957c-0.92982,-2.70838 -1.87952,-5.40841 -2.85565,-8.09706c-5.80542,-15.99042 -12.9013,-31.63803 -19.78457,-47.18698c-8.01227,-18.09932 -16.87525,-35.79116 -25.26272,-53.70974c2.09633,9.18372 3.9799,18.41823 5.8213,27.63351c3.41023,17.06647 6.76599,34.14337 10.18202,51.20847c7.54839,13.64848 14.68128,27.47295 21.52144,41.53023zM244.08458,200.84794c0.4453,0.34891 0.88641,0.70127 1.32383,1.05676c-0.8959,-2.982 -1.82266,-5.96418 -2.778,-8.9575c-0.63003,-1.9252 -1.25428,-3.85352 -1.87507,-5.78392c-1.72321,2.46898 -3.46051,4.92825 -5.20476,7.38267c2.66874,2.26602 5.92445,4.25731 8.53399,6.30199zM257.31798,212.62282c5.32398,4.98519 10.69532,9.9162 16.11509,14.79092c0.29415,-0.12634 0.60082,-0.214 0.92394,-0.24725c1.3736,-0.14132 2.47671,0.08329 3.37559,0.56724c-0.6458,-1.12359 -1.29019,-2.24804 -1.93274,-3.37373c-4.31877,-7.56614 -8.38587,-15.31008 -12.29567,-23.1456c-5.53393,-7.60263 -11.44078,-14.94483 -17.33794,-22.06567c-0.04756,0.09078 -0.10043,0.178 -0.15812,0.26132l-1.67391,2.53685c1.00929,3.15944 2.02389,6.3152 3.05388,9.46259c1.77186,5.55155 3.4464,11.0674 5.00966,16.61347c1.64367,1.51759 3.27307,3.0575 4.92022,4.59984zM314.37829,262.3788c0.37992,-17.19761 1.26645,-34.38621 2.26878,-51.55892c0.34356,-5.88611 0.68601,-11.78019 1.0508,-17.67657c-0.66137,2.2811 -1.42001,4.43698 -1.92124,6.06958c-2.30131,7.49584 -5.32631,15.00951 -8.79165,22.29017l2.08782,2.54786c0.44642,0.53906 0.66525,1.26154 0.54124,2.00614c-0.22684,1.36195 -1.5148,2.28214 -2.87675,2.05531c-0.58992,-0.09825 -1.09697,-0.39558 -1.46381,-0.81179l-0.74017,-0.82539c-2.10366,4.12408 -4.33183,8.15177 -6.63037,12.03515c-0.89492,1.51002 -2.32428,4.21864 -4.10252,6.75706c6.78418,5.79337 13.64284,11.49846 20.57788,17.11138zM241.00171,204.78443c-2.57016,-2.0118 -5.67449,-3.97728 -8.35057,-6.1694c-0.17966,0.25162 -0.35936,0.50322 -0.53908,0.7548c4.55955,6.06296 9.39253,11.95532 14.64601,17.39133c1.11097,1.14958 2.40938,2.14001 3.65068,3.17461c-0.77778,-3.08437 -1.59242,-6.14612 -2.44147,-9.19685c-2.25111,-2.05531 -4.54393,-4.05896 -6.96556,-5.9545zM244.82501,227.93413c2.92223,5.63419 6.12207,11.22312 8.99151,16.92449c2.19057,-1.78548 4.3478,-3.61263 6.46335,-5.49107c3.11781,-2.76837 5.95283,-6.11635 9.11936,-8.85599c-4.88399,-4.40128 -9.72883,-8.84787 -14.53539,-13.33797c0.66752,2.60058 1.3094,5.21547 1.9242,7.85127l-0.0074,0.05057l0.017,-0.00328l0.48563,2.51636c0.06539,0.30085 0.07593,0.61891 0.02227,0.94113c-0.22684,1.36195 -1.5148,2.28214 -2.87675,2.05531c-0.54491,-0.09076 -1.01911,-0.35137 -1.37742,-0.71864l-2.66409,-2.66349l0.28126,-0.28132c-4.51048,-3.26702 -8.60124,-7.23858 -12.3919,-11.53459c2.19248,4.17691 4.37601,8.35882 6.54838,12.54724zM256.39616,250.25228c1.50069,3.3366 2.87182,6.75173 4.18282,10.19845c2.67097,-4.93335 5.17659,-9.99575 7.98101,-14.75817c2.05197,-3.48461 4.11349,-6.97331 6.05316,-10.51296c-0.5108,-0.45433 -1.02117,-0.90916 -1.53111,-1.36449c-0.70658,0.77284 -1.35869,1.61668 -2.09498,2.34986c-3.5905,3.57537 -7.2901,7.06563 -11.18574,10.31224c-1.23503,1.02926 -2.48054,2.04472 -3.73526,3.04799c0.11092,0.24208 0.22097,0.48443 0.3301,0.72707zM187.4164,114.9395c-0.52203,-1.04948 -1.02062,-2.09445 -1.51443,-3.12959c2.06543,5.23582 4.49835,10.37958 6.67778,15.54963c0.63324,1.50219 1.2828,2.99956 1.94694,4.49247c-0.46195,-2.2771 -0.92145,-4.55471 -1.37896,-6.83273c-1.89872,-3.37145 -3.81172,-6.73083 -5.73133,-10.07978zM216.55719,174.63005c0.49144,-0.29483 1.08623,-0.4231 1.69584,-0.32157c0.10376,0.01728 0.20495,0.04073 0.30328,0.06988c-5.29673,-11.77088 -11.16338,-23.31876 -17.31315,-34.70532c0.74023,3.57438 1.50092,7.14422 2.26316,10.71402c4.21789,8.15234 8.66709,16.21269 13.05087,24.24299zM328.57419,273.65476c2.83624,2.21049 5.68509,4.40558 8.54666,6.58504c6.96086,4.54312 14.18548,8.84356 20.94439,13.68032c4.17283,2.98613 7.33031,5.86687 12.01094,8.05616c2.91626,1.36403 5.67486,3.11845 8.73215,4.12747c1.29285,0.42669 2.66776,0.5688 4.02145,0.71382c0.49261,0.05277 1.2609,0.31946 1.48107,-0.12436c0.44229,-0.89157 -0.01691,-1.99296 0.06151,-2.98512c0.13016,-1.64682 0.37369,-3.28272 0.56361,-4.92372c1.20064,-10.37427 -0.82997,-21.54966 -2.60869,-31.80122c-1.41191,-8.14519 -2.50859,-16.42495 -4.24462,-24.50622c-2.5487,-11.86425 -6.6812,-23.55392 -9.86123,-35.27409c-3.48168,-12.83193 -6.7811,-25.6921 -10.95698,-38.31684c-2.41885,-7.3128 -4.71183,-14.63121 -6.8762,-21.97735c-1.65664,5.41592 -3.29199,10.85806 -4.46374,16.3281c-4.14193,19.33559 -7.02609,39.39591 -8.33328,59.0964c-1.63515,9.90775 -3.28325,19.81331 -4.93297,29.71863c-0.98998,5.94403 -1.45073,12.32259 -3.02939,18.13707c-0.31617,1.16451 -0.67327,2.31834 -1.0547,3.46592zM347.84542,138.05155c-2.78582,-9.96589 -5.33456,-19.99867 -7.63944,-30.15298c-1.5094,-6.64977 -2.68378,-13.14041 -3.51644,-19.91031c-0.14243,-1.158 -0.34535,-2.15614 -0.54803,-3.0878c-1.23021,7.36793 -2.46264,14.73557 -3.65532,22.10963c-1.58959,9.82794 -3.50339,19.66328 -4.77853,29.53619c-3.19139,24.70964 -4.61832,49.70927 -6.06908,74.56495c-1.07477,18.41398 -1.9232,36.82422 -2.29872,55.25703c1.67497,1.33797 3.35437,2.67057 5.03824,3.99774c0.14021,-0.46601 0.275,-0.93344 0.40332,-1.40259c1.551,-5.67083 1.97853,-11.93121 2.94483,-17.73306c1.63601,-9.82294 3.26454,-19.64712 4.89801,-29.47048c1.29385,-19.86414 4.23385,-40.12383 8.42122,-59.61605c1.73815,-8.09106 4.46301,-16.11701 6.79995,-24.09226zM319.08802,286.01425c0.9733,-3.60195 2.33195,-7.097 3.59923,-10.61428c-1.15445,-0.90603 -2.3068,-1.81465 -3.45704,-2.72581c-0.02659,1.85378 -0.04812,3.70783 -0.06433,5.56215c-0.02268,2.5933 -0.04523,5.18568 -0.07785,7.77793zM230.63857,224.2556c-0.08484,-0.42754 -0.16956,-0.85531 -0.25424,-1.28326c0.01076,0.30853 0.02074,0.61721 0.02993,0.92602c0.07478,0.11905 0.14955,0.23813 0.22431,0.35724zM202.68197,172.60229c-0.41201,-0.64167 -0.82348,-1.28283 -1.23432,-1.92364c0.96839,2.85672 1.9796,5.69213 3.0364,8.50082c0.30625,0.81394 0.61528,1.62685 0.92626,2.43903c0.7538,0.29953 1.30766,0.94697 1.5004,1.71672l1.11071,4.05472c1.56522,0.04441 3.1503,0.35245 4.57262,0.96451c-3.62643,-4.95022 -6.61438,-10.61628 -9.91207,-15.75216zM181.92539,138.21605c-5.47994,-10.21941 -11.12463,-20.31815 -16.67993,-30.46683c6.50561,15.6373 13.45867,31.07903 21.48476,46.15647c3.23062,6.06891 6.5527,12.05053 9.98071,17.9544c-1.87955,-5.64519 -3.62927,-11.33747 -5.24754,-17.06588c-3.30625,-5.42922 -6.50629,-10.92442 -9.53799,-16.57816zM284.49663,209.18649c0,0 0.0326,-0.19572 0.13457,-0.46771c-0.41382,-0.36901 -0.82748,-0.73764 -1.2411,-1.10554c0.24358,1.16635 0.49369,2.33114 0.75255,3.49343c0.12853,-0.63611 0.24671,-1.27611 0.35398,-1.92019zM187.9405,456.47895c-6.39791,11.57338 -12.65848,23.21781 -19.11614,34.78593c-2.45141,4.3914 -3.82995,8.66953 -5.43462,13.42749c-0.44543,1.32073 -0.83444,2.66204 -1.34039,3.9608c-0.31931,0.81969 -1.40937,1.54964 -1.13138,2.38424c0.196,0.58845 1.30069,0.05545 1.84488,-0.24213c1.18381,-0.64737 2.11952,-1.67021 3.17928,-2.50532c3.51453,-2.39132 4.56195,-5.84347 6.52877,-9.55957c2.25777,-4.26583 4.37698,-8.26879 6.08703,-12.78532c3.61765,-9.55481 6.7054,-19.43956 9.38257,-29.46612zM291.28463,178.22117c-3.26841,-0.31722 -6.54308,-0.48122 -9.79479,-0.44692c-1.38129,0.01323 -2.59773,0.01958 -3.84019,0.04479c0.7651,4.11466 1.54476,8.2261 2.33051,12.33477c8.08876,8.77032 16.08469,17.66427 23.53157,26.9846c2.92687,-6.3641 5.48809,-12.88839 7.48508,-19.39298c0.94751,-3.08623 1.80263,-6.20725 2.45246,-9.36958c0.25809,-1.25598 0.7878,-2.55852 0.51686,-3.81179c-0.57309,-2.65094 -6.1972,-3.6246 -7.9369,-3.99559c-2.25295,-0.48045 -4.53125,-0.91842 -6.82455,-1.2979c1.26219,6.24152 2.515,12.48526 3.79195,18.72528l-0.02574,0.09775l0.03936,-0.00503l0.36814,2.87943c0.03844,0.254 0.03808,0.51829 -0.00641,0.78543c-0.22684,1.36195 -1.5148,2.28214 -2.87675,2.05531c-0.9546,-0.15899 -1.69218,-0.83928 -1.96989,-1.70096l-1.61015,-4.67964c-0.64681,-1.16046 -2.71009,-8.37621 -3.08008,-9.62525c-0.94257,-3.18199 -1.76558,-6.37342 -2.55049,-9.5817zM281.68455,234.57707c0.02053,0.07847 0.04086,0.1569 0.06103,0.23526c0.05125,0.04513 0.1025,0.09027 0.15376,0.13539c-0.0716,-0.12355 -0.1432,-0.2471 -0.21479,-0.37065zM285.96717,246.10083c0.21052,-0.13784 0.42018,-0.27896 0.62715,-0.42447c-0.56016,-0.48331 -1.11981,-0.96722 -1.67895,-1.45174c0.16672,1.19431 0.35082,2.33516 1.0518,1.87621zM300.97716,222.43132c-4.15118,-3.04346 -8.12029,-6.42548 -12.02913,-9.87407c-0.61444,2.91989 -1.43079,5.76187 -2.40359,8.54309c0.52414,2.13815 0.99287,4.05274 0.99285,4.06146c-0.00013,0.04508 -0.00048,0.09014 -0.00108,0.13518l0.02244,-0.00301l0.65758,4.89781c0.04087,0.25879 0.04142,0.52847 -0.00399,0.80111c-0.06417,0.38531 -0.21328,0.73527 -0.42497,1.0339c1.22002,2.55651 2.42538,5.11526 3.60164,7.6945c0.75945,-1.23956 1.47146,-2.50805 2.21207,-3.7591c2.57564,-4.34497 5.0615,-8.87985 7.37619,-13.53087zM233.07325,260.31043c0.13541,-2.12616 0.17142,-4.25801 0.18177,-6.31711c-1.25529,-1.73794 -2.48193,-3.49213 -3.66982,-5.23925c-0.47659,5.15617 -1.12938,10.2785 -1.93288,15.32242c0.34608,-0.23791 0.69185,-0.47653 1.03733,-0.71589c1.4629,-1.01342 2.9248,-2.02934 4.3836,-3.05016zM230.58316,238.2411c-0.08317,-0.23361 -0.16656,-0.46733 -0.25044,-0.70098c-0.03772,0.93708 -0.08182,1.8741 -0.13212,2.81081c0.61554,0.99016 1.2393,1.97652 1.87148,2.95812c-0.41129,-1.69298 -0.88498,-3.37167 -1.48892,-5.06793zM235.1543,186.43347c-0.77971,0.48454 -1.58286,0.99787 -2.3948,1.58961c-0.63434,0.46229 -1.26635,0.93045 -1.89642,1.40329c0.37285,0.48869 0.75287,0.97169 1.14256,1.44716c1.0533,-1.4778 2.10355,-2.9574 3.14866,-4.44006zM208.37697,224.79806c-1.12732,-3.50224 -2.21707,-7.02836 -3.25737,-10.56986c-4.02734,1.2548 -8.41404,4.88198 -11.26696,6.89706c-2.81048,1.9851 -6.12497,4.02628 -8.80329,6.34483c-0.19979,2.68103 -0.20321,5.42012 0.05508,8.32391c0.26771,3.00973 0.50157,6.05388 1.27593,8.97457c0.58008,2.18792 1.67849,4.27591 1.85371,6.53263c3.33672,-2.79702 5.6132,-6.58806 8.31392,-9.97984c4.23588,-5.31975 8.08013,-10.87089 11.82897,-16.52332zM185.9845,220.47548c1.68008,-1.18091 3.39204,-2.31177 4.98493,-3.43522c3.48352,-2.4569 8.14871,-6.08541 12.78484,-7.57323c-1.33522,-4.7751 -2.57148,-9.57112 -3.6799,-14.36741c-4.00105,2.45974 -7.64886,6.13014 -9.70763,9.81166c-1.84552,3.30018 -1.98946,5.05789 -2.88416,8.72951c-0.57147,2.34517 -1.08369,4.60242 -1.4981,6.83469zM209.66609,192.59618c0.12641,0.32853 0.25255,0.65717 0.37835,0.98593c0.82667,1.27407 1.65946,2.54489 2.49857,3.81254c0.1253,-0.09854 0.24972,-0.19784 0.37224,-0.29884c0.01875,-0.01546 0.03751,-0.03091 0.05627,-0.04635c-0.2581,-1.37077 -0.59981,-2.70689 -1.01544,-3.2002c-0.53547,-0.63555 -1.36676,-1.03396 -2.28999,-1.25308zM205.35138,238.00343c-2.58962,3.4983 -5.33206,6.83687 -7.97284,10.30078c-1.02295,1.3418 -3.73448,5.80603 -5.86701,6.62763c-1.75511,0.67619 -3.72324,0.53675 -5.58487,0.80512c-3.73602,-7.06094 -5.77624,-14.74902 -6.20439,-22.67939c-7.98666,9.80052 -11.62113,21.87608 -10.45438,34.73983c1.63892,0.16515 3.23442,0.88336 4.87875,0.78587c1.12251,-0.06655 2.13168,-0.71718 3.20385,-1.05616c9.2058,-2.91057 15.18516,-7.35981 20.50265,-15.42815c2.96279,-4.4955 5.44397,-9.21343 7.49827,-14.09551zM223.29078,203.05201c-0.24241,-0.95673 -0.6891,-2.61631 -1.10463,-4.17688c-0.49398,-0.5013 -0.9935,-1.00259 -1.49474,-1.50513c-0.78468,0.6187 -1.56941,1.23454 -2.35495,1.84509c0.06218,0.46471 0.12113,0.89743 0.1823,1.28371c-0.08662,1.72715 -0.20462,3.46213 -0.35575,5.2012c0.53384,0.77182 1.07021,1.54253 1.60913,2.31216c1.16747,-1.65677 2.34134,-3.30956 3.51866,-4.96015zM208.4751,207.41452c0.14102,0.4945 0.28308,0.98875 0.42614,1.48278c0.0105,0.0015 0.02098,0.00303 0.03147,0.00456c-0.01728,-0.05622 -0.03457,-0.11245 -0.05187,-0.16865c-0.13538,-0.43978 -0.27067,-0.87931 -0.40574,-1.31868zM224.50815,210.02902c-0.55237,0.77869 -1.10392,1.55794 -1.65444,2.33787c0.74826,1.06011 1.48071,2.12883 2.20157,3.20425c-0.13504,-1.8442 -0.31287,-3.69826 -0.54714,-5.54212zM224.09875,253.09938c0.42577,-3.82098 0.7594,-7.66633 0.99335,-11.51743c-1.56677,-2.78177 -3.06157,-5.6852 -4.62195,-8.54666c1.45744,6.65351 2.68234,13.35524 3.62859,20.06409zM225.48803,227.23479c-0.72816,-0.94171 -1.62579,-1.76283 -2.59073,-2.45761c-0.51751,-0.37261 -1.65149,-0.75263 -1.9321,-0.20528c1.55439,2.55138 2.9982,5.19331 4.49232,7.81154c0.03147,-1.71858 0.04187,-3.43535 0.03051,-5.14865zM232.21023,267.00404c-0.2244,0.15562 -0.44883,0.31117 -0.6733,0.46668c-15.95142,11.04887 -32.95236,21.76024 -50.93693,29.54398c6.2561,-0.06195 12.49142,-0.41888 18.63881,-2.15271c7.79942,-2.19978 14.35475,-6.61971 20.84737,-11.23695c3.57599,-2.54307 7.20335,-5.69784 9.49834,-9.55296c1.25597,-2.10977 2.0821,-4.518 2.62571,-7.06803zM290.05337,173.09111c-4.52296,-19.03873 -7.60676,-38.24997 -10.43551,-57.58041c-2.78285,-10.65073 -5.79827,-21.24105 -9.24268,-31.69291c-1.80975,-5.4916 -3.81733,-11.13462 -6.07738,-16.45477c-1.22505,-2.88378 -3.03877,-5.35574 -4.36746,-8.03285c0.53272,25.0251 7.19661,49.83598 10.505,74.54741c1.73836,12.98443 3.91601,25.92137 6.27133,38.82483c1.63819,0.02677 3.24964,0.08648 4.73501,0.07208c2.85681,-0.02507 5.73431,0.08751 8.6117,0.31662zM241.76409,173.87994c0.22238,0.69793 0.44459,1.39588 0.66676,2.09379l0.28333,-0.15836c0.15737,-0.08974 0.32477,-0.16264 0.49941,-0.21673c-0.00271,-0.00325 -0.00542,-0.00649 -0.00813,-0.00974c-0.47786,-0.57247 -0.95844,-1.14195 -1.44136,-1.70895zM259.3859,181.35554c2.91683,2.40891 5.8533,4.79596 8.79383,7.17732c-0.25653,-0.76564 -0.51128,-1.53193 -0.76411,-2.29896c-0.56117,-1.70243 -1.14376,-3.39818 -1.74675,-5.08717c-1.08175,-1.66435 -2.26901,-3.39984 -1.93441,-5.21642c-6.35659,-16.52988 -14.59774,-32.39274 -23.74102,-47.50507c-3.18478,-5.26392 -6.33532,-10.59495 -10.08356,-15.47387c-0.50091,-0.652 -1.00944,-1.26815 -1.50907,-1.86674c5.89724,17.50707 14.32169,34.08132 22.05815,50.85547c2.96642,6.43177 5.91661,12.93005 8.92694,19.41543zM269.97436,178.3452c0.20047,0.55245 0.39883,1.10561 0.59503,1.65948c0.97491,1.05054 1.95105,2.10118 2.9276,3.15244c-0.32008,-1.68479 -0.63697,-3.37042 -0.95034,-5.05686c-0.85737,0.10757 -1.71379,0.23172 -2.57229,0.24495zM274.90278,192.75362c0.19693,0.56766 0.39462,1.13502 0.59303,1.70213c0.07712,0.06259 0.15425,0.12519 0.23137,0.18779c-0.08592,-0.43397 -0.17169,-0.868 -0.2573,-1.3021c-0.18988,-0.19525 -0.37897,-0.39115 -0.5671,-0.58782zM271.1712,197.23165c-2.31916,-1.8956 -4.64715,-3.78118 -6.97511,-5.66685c1.03418,2.15537 2.07955,4.30464 3.13898,6.44484c3.00764,4.12609 5.90971,8.32705 8.64963,12.60913c-1.62532,-4.45497 -3.24007,-8.91339 -4.8135,-13.38711zM217.72568,219.71033c0.17003,0.22925 0.33807,0.46003 0.50424,0.69224c1.0765,-0.76034 2.23226,-1.03277 3.39321,-0.96555c-0.60068,-0.90909 -1.20881,-1.81372 -1.82706,-2.71266c-0.69264,0.99364 -1.38293,1.98885 -2.07039,2.98598z" fill="#ff0000"/></g></g></svg>