<svg version="1.1" xmlns="http://www.w3.org/2000/svg" xmlns:xlink="http://www.w3.org/1999/xlink" width="138.19307" height="227.76264" viewBox="0,0,138.19307,227.76264"><g transform="translate(-227.80399,-127.96721)"><g data-paper-data="{&quot;isPaintingLayer&quot;:true}" fill-rule="nonzero" stroke="none" stroke-linecap="butt" stroke-linejoin="miter" stroke-miterlimit="10" stroke-dasharray="" stroke-dashoffset="0" style="mix-blend-mode: normal"><path d="M227.804,355.72985v-227.76264h138.19307v227.76264z" fill-opacity="0.01176" fill="#9966ff" stroke-width="0"/><path d="" fill="#193ea9" stroke-width="0.5"/><path d="" fill="#193ea9" stroke-width="0.5"/><path d="" fill="#193ea9" stroke-width="0.5"/><path d="" fill="#193ea9" stroke-width="0.5"/><path d="" fill="#193ea9" stroke-width="0.5"/><path d="" fill="#193ea9" stroke-width="0.5"/><path d="" fill="#193ea9" stroke-width="0.5"/><path d="" fill="#193ea9" stroke-width="0.5"/><path d="" fill="#193ea9" stroke-width="0.5"/><path d="" fill="#193ea9" stroke-width="0.5"/><path d="" fill="#193ea9" stroke-width="0.5"/><path d="" fill="#193ea9" stroke-width="0.5"/><path d="" fill="#193ea9" stroke-width="0.5"/><path d="" fill="#193ea9" stroke-width="0.5"/><path d="M294.70268,165.36112c0.03552,-0.09382 0.06434,-0.19065 0.08567,-0.29076c0.32845,-1.54221 -0.19668,-8.23213 -1.87886,-8.81166c-1.36403,-0.46993 -2.8799,0.21634 -4.32261,0.21862c-0.61972,0.00098 -1.29975,-0.2495 -1.85909,0.01734c-0.26542,0.12662 -0.02686,0.58778 -0.02579,0.88186c0.00371,1.02861 0.03367,2.05699 0.04012,3.08558c0.00999,1.59394 -0.07867,3.22127 0.19922,4.57503c0.01425,-0.00138 0.02854,-0.00264 0.04286,-0.00378l3.21195,-0.292l0.00359,0.03951c0.0996,-0.01809 0.19967,-0.03434 0.30022,-0.04857c0.61281,-0.08676 2.49485,0.26616 4.20272,0.62883zM290.72936,173.03214c-3.80539,-0.23034 -7.24321,-1.67679 -8.59444,-5.98909c-0.48741,-1.55551 -0.40156,-4.91601 -0.39281,-6.58095c0.01199,-2.28182 -0.46404,-6.04383 1.78014,-7.8047c1.24804,-0.97926 3.04685,-0.92406 4.61559,-1.15988c0.66405,-0.09982 6.47937,0.02486 6.86093,0.21862c4.16835,2.11677 5.80202,10.55 4.59582,14.73264c-0.0278,0.0964 -0.05698,0.19123 -0.08751,0.28454c0.49239,1.06054 -0.07954,2.20441 -0.07954,2.20441l-2.97707,1.85157c-0.15247,1.95721 -2.24758,2.16672 -2.24758,2.16672c-0.86918,0.07865 -1.7458,0.12093 -2.6104,0.10814c-0.16121,0.06352 -0.32218,0.12706 -0.48265,0.19091c-0.12683,-0.07431 -0.25366,-0.14862 -0.38048,-0.22293z" fill="#193ea9" stroke-width="0.5"/><path d="M250.69149,349.31631c0,0 -2.5,0 -2.5,-2.5c0,-1.02953 0.42397,-1.63509 0.92273,-1.99127c0.31996,-1.98025 2.46018,-1.98025 2.46018,-1.98025l0.90937,0.06402c5.28622,-1.19868 10.57132,-1.51253 15.92078,-2.65511c1.62094,-0.34621 3.23356,-0.8075 4.88756,-0.91521c0.50875,-0.03313 1.00477,0.76089 1.44447,0.50284c0.33539,-0.19683 -0.58301,-0.58753 -0.64637,-0.97122c-0.15983,-0.9679 -0.00048,-1.96202 0,-2.94304c0.00101,-2.06717 -0.04027,-4.14186 -0.27864,-6.19524c-0.8677,-7.47472 -2.0999,-14.95773 -2.7713,-22.46872c-0.31742,-0.04603 -0.66276,-0.1659 -1.03377,-0.38851c-2.14373,-1.28624 -0.85749,-3.42997 -0.85749,-3.42997l0.65494,-0.97585c0.27378,-0.82092 0.53851,-1.63627 0.79375,-2.44737c-0.0008,-0.02794 -0.00159,-0.05587 -0.00237,-0.08381c-0.55895,0.22998 -1.06841,0.22998 -1.06841,0.22998l-0.57038,-0.01529c-2.46186,-0.27358 -7.84443,-1.85146 -9.9608,0.07696c-3.89135,3.54575 -5.52221,12.22368 -11.55167,13.40844c-1.75914,0.34566 -3.84766,-0.25397 -5.17737,-1.45643c-0.88234,-0.7979 0.14778,-2.47467 -0.35959,-3.55065c-1.79105,-3.79819 -8.38785,-4.44667 -10.26357,-8.25736c-0.07129,-0.14484 -0.13725,-0.2916 -0.1985,-0.44004l-0.05924,0.02962l-1.44903,-2.89805c-0.18291,-0.34741 -0.28642,-0.74312 -0.28642,-1.16302c0,-1.38071 1.11929,-2.5 2.5,-2.5c0.24775,0 0.48708,0.03604 0.71304,0.10316l3.1821,0.86784l-0.00222,0.00812l0.03256,0.00036c0.79998,0.312 2.56325,1.79086 2.39488,0.94886c-0.98922,-4.9472 -2.48731,-9.67082 -3.6642,-14.53124l-0.28067,0.10795l-1.45095,-3.77247c-0.12066,-0.29314 -0.18721,-0.61426 -0.18721,-0.95093c0,-1.38071 1.11929,-2.5 2.5,-2.5c0.25848,0 0.5078,0.03923 0.74232,0.11205l4.06473,1.16135l-0.00944,0.03304l0.14821,0.01102c4.75972,1.97776 8.93817,4.30087 14.18392,4.27431c0,0 0.8433,0 1.55033,0.48978c2.62743,-6.19614 1.79512,-12.86112 0.16166,-19.39154c-1.36164,-4.44508 -2.9155,-8.87061 -6.56632,-12.00803c-1.85024,-1.59004 -5.49302,-3.01403 -7.34666,-4.19299c-1.04815,-0.66665 -2.4237,-1.18929 -2.90463,-2.3346c-0.67481,-1.60705 -1.07206,-3.67537 -0.26846,-5.22204c1.70995,-3.2911 8.05087,-1.93686 10.82128,-2.07091c3.67724,-0.17793 9.21626,-0.49503 12.48729,-2.35175c3.23515,-1.83636 6.42558,-4.34145 9.53529,-6.36952c0,0 0.70365,-0.4589 1.56119,-0.43678c-0.07478,-0.02479 -0.14168,-0.06193 -0.19746,-0.11598c-1.68149,-1.6291 -2.24868,-4.10717 -3.37001,-6.16241c0,0 -0.02836,-0.05199 -0.06835,-0.14434c-5.28476,-1.76246 -10.43551,-3.91101 -15.37569,-6.48893c-4.46489,-2.32991 -8.92706,-5.50602 -11.10696,-10.26698c-2.05691,-4.49233 -1.82349,-9.14574 -2.29862,-13.89702c-0.00841,-15.41558 7.54477,-31.85959 21.30079,-39.68946c0.4595,-0.26154 0.92985,-0.51112 1.41016,-0.74907c0.18966,-0.64012 0.5788,-1.07791 0.5788,-1.07791c3.78623,-4.22707 8.39614,-7.8445 12.46151,-11.87901c1.58518,-1.57315 4.15879,-4.77965 6.95898,-4.2169c1.53141,0.30776 2.30614,2.10746 3.45921,3.16119l1.29933,2.72159c0,0 0.21418,0.49974 0.20971,1.133c1.64937,-0.89504 3.2894,-1.84696 5.11851,-2.63402c1.62242,-0.69813 3.28746,-2.60547 4.92724,-1.94913c2.44316,0.97791 3.18668,5.65239 3.71942,8.01287l0.74031,1.61765c0,0 0.25566,0.59655 0.20251,1.312c4.10834,-1.99283 8.29119,-4.17598 12.60146,-5.34764c1.34187,-0.36476 2.78505,-1.47145 4.06641,-0.93127c3.14442,1.32559 4.44587,3.6827 5.45102,6.29835c6.76915,-3.35366 14.86627,-5.6749 22.28931,-6.62841l0.14092,0.04257l-0.00069,-0.04852l2.64682,-0.03789c0.01388,-0.00023 0.02779,-0.00034 0.04172,-0.00034c1.38071,0 2.5,1.11929 2.5,2.5c0,0.75529 -0.33493,1.43235 -0.86438,1.89075l-3.75224,3.28321l-0.03754,-0.04291c-1.67434,1.96109 -3.59471,3.73504 -5.71093,4.55626c0.47644,0.03401 0.95231,0.07453 1.40464,-0.05398c1.92934,-0.54818 6.03767,-4.49567 8.19002,-0.80033c1.4038,2.41015 -0.37197,5.06411 -2.37828,7.2641c1.12689,0.24252 1.97149,1.24464 1.97149,2.44403c0,0.3399 -0.06783,0.66396 -0.1907,0.95938l-1.79152,4.60676l-0.01966,-0.00765c-0.02072,0.06615 -0.04193,0.13217 -0.06366,0.19806c-1.03958,3.15198 -3.56497,5.97361 -6.21089,8.42775c3.23702,-1.24308 6.54091,-2.69665 9.72263,-2.80777c1.71772,-0.05999 4.4384,-0.92274 5.1142,0.65759c0.98488,2.30308 -0.77014,4.99436 -1.70317,7.31893c-0.16093,0.40095 -5.52267,7.94916 -5.85557,8.43211c-1.59117,2.30834 -3.14462,4.63916 -4.6774,6.98437c0.23796,0.08022 0.45854,0.20692 0.65645,0.39259c1.39419,1.30803 0.88598,3.89998 0.32071,5.72623c-0.40338,1.30322 -1.93973,1.92124 -2.96601,2.82004c-2.73528,2.39551 -5.82743,5.83444 -9.05494,7.52588c-1.50153,0.78691 -3.15433,2.29947 -4.76615,1.77428c-0.93405,-0.30435 -2.19095,-1.67762 -2.68331,-3.0946c-0.1636,0.13138 -0.34053,0.24365 -0.53635,0.32883c-0.64938,0.28248 -1.36471,0.29087 -2.08918,0.2612c-0.52439,0.93225 -1.15316,1.80467 -1.98997,2.56135c-0.78379,0.70873 -1.67354,1.27685 -2.59093,1.80939c0.04034,0.1493 0.07709,0.30217 0.11005,0.45884c1.58196,7.52123 -5.6953,6.7846 -10.86763,5.87394c-2.03725,0.97934 -4.08946,1.7761 -6.21378,2.39228c-0.14525,1.26027 -0.21755,2.52976 -0.2133,3.79576v0.58861c0,0 0,0.21453 -0.06284,0.5179c2.74094,3.92462 6.63595,9.94991 11.25257,10.56019c2.90427,0.38392 5.9982,-0.31455 8.9237,-0.02795c2.35735,0.23094 4.73384,0.9179 7.08072,0.59763c4.76886,-0.65077 9.50873,-2.28826 14.45141,-1.78702c1.48465,0.15056 3.50254,-0.4474 4.4165,0.73223c3.16874,4.08982 0.23202,6.00907 -1.87145,8.32731c-5.30045,8.5446 -12.12117,16.23152 -16.80885,25.20303c-2.52562,4.83365 -4.30866,10.39024 -5.43383,15.87714c3.05769,-0.32457 6.27236,-0.09267 9.46679,-0.39228c2.04899,-0.19217 4.00533,-1.17967 6.06325,-1.16386c2.06783,0.01588 4.79654,-0.86877 6.16624,0.68045c1.19061,1.34665 -0.02562,3.73054 -0.85769,5.32386c-0.68408,1.30993 -2.26137,1.90324 -3.40517,2.83897c-1.76434,1.44339 -3.48651,2.93826 -5.28589,4.33206c0.39337,0.44173 0.63239,1.02394 0.63239,1.66197c0,0.73679 -0.31873,1.39914 -0.82583,1.85668l-3.22983,2.93621l-0.03,-0.033c-0.0663,0.07412 -0.1336,0.14744 -0.20198,0.21991c-1.86995,1.98184 -7.87866,4.43192 -10.46696,4.84552c-0.78436,0.12534 -1.66023,-0.69076 -2.36164,-0.31797c-0.60656,0.32238 -0.51937,1.27619 -0.69216,1.94101c-0.45133,1.73654 -0.74821,6.51356 -2.86463,7.04805c-7.03301,1.77615 -6.36538,-6.53248 -8.9248,-10.449c-0.35711,0.34982 -0.88289,0.61359 -1.65701,0.63196c-2.889,7.50263 -5.53972,14.98006 -8.00943,22.69929c-0.96176,3.00603 -1.73103,5.2469 -2.24636,8.32047c-0.08573,0.51133 -0.60242,0.99531 -0.44675,1.48986c0.51442,1.63427 5.9795,0.73021 6.57856,0.75227c3.73769,0.13764 7.48103,0.25912 11.21535,0.49148c0.50565,-0.44707 1.03539,-0.8408 1.67426,-1.01675c1.2216,-0.33644 2.50415,0.38895 3.75622,0.58342c0,0 2.44047,0.54233 1.89814,2.98279c-0.27426,1.23417 -1.03395,1.70551 -1.71797,1.86993c-0.86825,1.74379 -2.88082,1.16876 -2.88082,1.16876l-1.34204,-0.43145c-0.25811,0.30916 -0.52915,0.60157 -0.86713,0.79596c-2.0184,1.16089 -5.50031,1.89887 -7.78706,2.07759c-3.98216,0.31122 -11.4912,1.10157 -15.21508,-0.44665c-3.16962,-1.31779 -3.20804,-2.16555 -4.83804,-3.75052c-10.96845,5.29008 -24.15543,3.32278 -36.07078,3.32278zM288.95291,308.55487c1.33337,1.33337 0.65531,2.66673 0.24155,3.24153c-0.55111,2.67585 -0.82033,5.36424 -1.3096,8.06337c-0.82162,5.33756 -0.84174,10.37709 -0.84844,15.77299c-0.00046,0.36656 -0.07986,4.391 0.1678,4.79223c0.00886,0.01435 0.01807,0.02829 0.02762,0.04184c0.42872,0.03942 0.88694,0.20849 1.31138,0.61794c0.17961,0.06056 0.34973,0.13454 0.49261,0.24343c1.68534,1.28449 2.30791,2.86821 4.32909,3.73757c0.14824,0.06376 0.29864,0.11795 0.45092,0.16371c-3.63376,-3.19382 -2.29657,-8.02136 -0.75099,-12.47939c3.67094,-10.58841 7.1885,-21.02146 11.33928,-31.44429c0.00711,-15.37159 0.09503,-30.88416 1.18294,-46.19607c0,0 0.17812,-2.49365 2.67176,-2.31553c2.49365,0.17812 2.31553,2.67176 2.31553,2.67176c-1.09593,15.25859 -1.16625,30.7264 -1.17059,46.04522c0.00614,0.10922 0.00542,0.21512 -0.00008,0.31582c-0.00005,0.20113 -0.00008,0.40224 -0.00011,0.60332l1.48133,0.4024c1.58394,1.42388 2.98104,3.20972 3.68509,5.21985c0.26717,0.76278 0.52514,1.53133 0.73601,2.31174c0.94064,-2.4678 3.17273,-5.36041 3.27069,-5.42877c1.12768,-0.78692 2.76136,-0.06527 4.11305,-0.31797c2.75931,-0.51585 4.73041,-2.17816 7.01741,-3.13555c-0.18379,-0.34806 -0.28785,-0.74474 -0.28785,-1.16572c0,-0.58659 0.20203,-1.126 0.5403,-1.55244l2.04645,-2.63115l0.09369,0.07287l0.14834,-0.34147c1.79824,-1.30726 3.67224,-3.30773 5.62477,-5.017c-2.81445,0.41152 -5.85775,0.33425 -8.46079,0.48733c-1.6928,0.09955 -3.25865,-0.07117 -4.7211,0.11843l0.01632,0.91722c0,0 0,2.5 -2.5,2.5c-1.22018,0 -1.84482,-0.59553 -2.16459,-1.20527c-0.67917,0.17252 -1.56494,0.10859 -2.38228,-0.84496c-1.62698,-1.89814 0.27116,-3.52512 0.27116,-3.52512c0.7036,-0.5649 1.42921,-1.02346 2.17349,-1.39607c1.16784,-6.71897 3.26185,-13.65676 6.35969,-19.63924c4.79947,-9.26864 11.80659,-17.22925 17.33038,-26.00582c0.36012,-0.30813 0.70781,-0.63182 1.06667,-0.94153c-1.55793,0.45003 -4.01396,0.19245 -5.07714,0.27992c-4.74404,0.39029 -8.8715,1.80905 -13.70347,1.46848c-3.84549,-0.27104 -8.48141,-0.00245 -12.26617,-0.61656c-6.87707,-1.11586 -11.60132,-8.86289 -15.38621,-13.90925c0,0 -1.27463,-1.69951 0.09272,-3.14022c0.01098,-0.74078 0.04306,-1.48199 0.0958,-2.22196c-2.00951,0.29778 -4.11029,0.4554 -6.34196,0.47424c-0.78362,0.39953 -1.64441,0.2671 -1.64441,0.2671c-4.84945,-0.74741 -9.67069,-1.75184 -14.41127,-3.04294c0.19197,0.30939 0.41025,0.60026 0.66678,0.86437c0.81591,0.84002 2.65009,0.84342 2.89636,1.98827c0.73487,3.41623 -1.26914,5.6371 -2.9241,8.00157l-1.14948,1.19758c0,0 -1.76777,1.76777 -3.53553,0c-0.24968,-0.24968 -0.42882,-0.49935 -0.55239,-0.74405c-3.24106,2.3484 -6.73781,4.92523 -10.33999,5.82178c-2.6691,0.66432 -5.44436,0.78892 -8.16107,1.21894c-2.19308,0.34713 -6.43995,1.08067 -8.92252,0.33758c0.28674,0.13349 0.57372,0.27138 0.7422,0.359c2.01372,1.04722 6.1311,3.056 7.95714,4.63612c4.45612,3.856 6.46168,9.01755 8.14886,14.4793c2.04888,8.19948 2.78485,16.44126 -1.05511,24.15613l-0.45297,1.43836c0,0 -0.79057,2.37171 -3.16228,1.58114c-1.22278,-0.40759 -1.60499,-1.23547 -1.68834,-1.94191c-0.10649,0.01008 -0.16982,0.01008 -0.16982,0.01008c-5.6976,-0.02394 -10.17362,-2.16607 -15.28685,-4.32448c2.22695,3.29528 3.08769,8.58663 3.34776,12.11819c0.13687,1.85863 1.15273,3.91384 0.32127,5.58174c-0.84878,1.70264 -1.95349,2.36609 -3.15118,2.51232c1.27773,0.98149 2.42471,2.01059 3.14941,2.66729c1.31344,1.19021 2.80429,2.31783 3.62866,3.88696c0.36633,0.69728 -0.26847,1.55307 -0.35959,2.33543c-0.11884,1.02033 1.46508,-1.44395 2.13127,-2.22586c2.10192,-2.46702 2.86788,-4.11889 4.75645,-6.76213c0.92001,-1.28764 1.62952,-2.79956 2.87057,-3.78151c3.77301,-2.9853 9.281,-1.57825 13.58349,-1.10026l0.01822,-0.01529c0,0 0.89314,0 1.61174,0.53384c0.21519,-0.27 0.51021,-0.51025 0.91466,-0.66152c1.84906,-6.90215 2.9198,-13.6897 2.9198,-21.21091c0,-3.13741 0.3448,-6.38065 -0.69231,-9.42044c-1.26265,-3.70087 -3.16659,-7.72816 -4.92984,-11.24c0,0 -1.11803,-2.23607 1.11803,-3.3541c2.23607,-1.11803 3.3541,1.11803 3.3541,1.11803c1.84385,3.70181 3.93709,8.02484 5.21421,11.93476c1.18849,3.63856 0.9358,7.23045 0.9358,10.96174c0,9.52369 -1.61997,17.98264 -4.34131,26.83851c0.46198,10.6092 2.96839,20.99389 3.4553,31.60339c0.0894,1.94794 0.74031,9.45222 -0.64326,10.92546c-0.23434,0.24953 -3.03047,0.82449 -5.44324,1.28537c3.34277,-0.31782 6.59437,-0.95745 9.64627,-2.14515c-0.73906,-2.01235 -0.60809,-4.67571 -0.61046,-6.70382c-0.00664,-5.66712 0.05483,-10.99084 0.91738,-16.60042c0.5472,-3.00023 0.83978,-5.98037 1.49658,-8.95772l0.967,-1.51974c0,0 1.76777,-1.76777 3.53553,0zM275.16342,225.63698c-0.15526,-0.3911 -0.73694,-0.21897 -1.23131,-0.20681c0.38888,0.07972 0.79179,0.27728 1.16299,0.67089c0.0962,-0.14454 0.13464,-0.29702 0.06832,-0.46409zM284.00437,138.55118l-0.46649,-1.39866c-0.22035,-0.51589 -0.21062,-1.21327 -0.66104,-1.54767c-0.22934,-0.17027 -0.22358,0.53614 -0.4103,0.75229c-0.63831,0.73895 -1.36099,1.40063 -2.04844,2.09409c-0.95422,0.96256 -1.94757,1.88691 -2.8765,2.87389c-1.12167,1.19177 -2.32051,2.26966 -3.53237,3.32377c2.01575,-0.36693 4.08464,-0.61666 6.16736,-0.7645c-0.06149,-0.15934 -0.11281,-0.33552 -0.15176,-0.53026c-0.49029,-2.45145 1.96116,-2.94174 1.96116,-2.94174c1.00277,-0.19193 1.93916,-0.46968 2.83416,-0.80535c-0.55847,-0.45547 -0.81578,-1.05586 -0.81578,-1.05586zM298.71956,144.73155l-1.02552,-2.5026c-0.17715,-0.81207 -0.45515,-1.60855 -0.53145,-2.4362c-0.05863,-0.63602 0.72417,-1.67578 0.13062,-1.91168c-0.57317,-0.2278 -0.48592,1.18659 -0.95884,1.58252c-0.65761,0.55055 -1.56317,0.71353 -2.30264,1.14798c-2.0824,1.22344 -4.03344,2.30258 -6.10428,3.16425c3.85643,0.1532 7.58968,0.59786 10.94042,1.23298c-0.10006,-0.16465 -0.14831,-0.27723 -0.14831,-0.27723zM326.57513,150.56505c-1.22579,1.16095 -2.40779,0.71008 -3.04612,0.29492c-0.81983,0.43041 -1.63097,0.8356 -2.47448,1.203c2.60752,1.27916 4.99264,2.88972 6.85501,5.04117c2.54619,2.9414 3.55539,6.61274 4.34626,10.32021c1.39779,-2.76789 5.10384,-5.17259 8.16629,-1.88937c0.26189,0.28077 0.08024,1.89241 -0.26582,3.63832c1.20493,-1.13713 2.34403,-2.34289 3.28378,-3.6533c0.75768,-1.05653 1.48286,-2.16551 2.29692,-3.18682l-0.06236,-0.02425l-1.32242,0.33061c-0.21047,0.05753 -0.43201,0.08824 -0.66073,0.08824c-1.38071,0 -2.5,-1.11929 -2.5,-2.5c0,-0.41989 0.10352,-0.81561 0.28642,-1.16302l1.15472,-2.30945l0.09637,0.04819l0.06407,-0.32363c0.2178,-0.25163 0.87961,-1.0476 1.62983,-1.90445c-3.62239,0.57787 -7.99452,-0.34979 -8.22829,-4.17674c-0.09157,-1.499 3.22244,-4.65504 5.9888,-6.85819c-5.00836,1.14469 -10.0878,2.90495 -14.45462,5.0966c-0.10808,0.05425 -0.21521,0.10843 -0.32143,0.16253c0.00717,0.54501 -0.19417,1.16115 -0.83221,1.76544zM318.93145,142.63518c-0.43723,-0.23368 -0.77817,0.63288 -1.23106,0.83455c-0.81029,0.36081 -1.70191,0.50892 -2.52551,0.83821c-2.45331,0.9809 -4.86634,2.10996 -7.27299,3.24967c0.29284,0.09028 0.5887,0.17936 0.88839,0.26663c1.64386,0.4787 3.37982,0.96383 5.13165,1.50854c0.59906,-0.54914 1.36346,-0.68812 1.36346,-0.68812c2.40873,-0.42984 4.18237,-1.22599 5.96106,-2.17848c-0.60334,-1.60622 -1.41856,-3.35189 -2.31501,-3.83101zM320.5902,206.43344c0,-1.44687 0.83738,-2.05637 1.54287,-2.31312c0.36198,-0.93025 0.68673,-1.85001 1.05068,-2.57979c4.15836,-9.27311 6.33245,-19.87946 4.79157,-30.05356c-0.55895,-3.69063 -1.29579,-8.18488 -3.81839,-11.07861c-4.01358,-4.60406 -11.24151,-6.17015 -16.78579,-7.78973c-3.10194,-0.90613 -5.68402,-2.01523 -8.88261,-2.59026c-3.81628,-0.77 -7.41166,-0.85155 -11.30883,-0.8385c-6.8098,0.02281 -14.76923,0.04859 -21.13424,3.17314c1.04459,-0.02185 2.19243,0.42077 3.54671,1.47831c1.48798,1.16194 2.36479,2.96219 3.30573,4.59891c0.92206,1.60389 2.81617,6.10982 1.93114,8.20683c-1.65458,3.92038 -6.45441,6.19771 -10.10719,7.43156c-1.68825,0.57026 -6.56144,2.82804 -8.23708,1.34293c-0.31311,-0.27751 -0.54723,-0.70413 -0.71159,-1.22502c-0.01995,-0.00189 -0.04005,-0.00395 -0.06029,-0.0062c-2.48471,-0.27608 -2.20863,-2.76079 -2.20863,-2.76079c0.58662,-4.83095 2.92034,-7.64518 5.36125,-11.63318c0.88288,-1.44248 1.43439,-3.114 2.54589,-4.38868c0.10905,-0.12506 0.21733,-0.24733 0.32499,-0.3666c-10.07528,7.48937 -15.60354,20.70706 -15.61128,33.02102c0.40543,4.05432 0.09581,8.16736 1.82164,12.0017c2.36907,5.26348 8.21672,7.63357 12.98621,10.01967c8.3334,4.16907 17.92274,6.73103 27.18663,8.35175c0.90777,-0.58017 2.02634,-0.30053 2.02634,-0.30053l1.74809,0.51396c2.76654,0.00422 5.28099,-0.22625 7.65152,-0.69428c0.08205,-0.13139 0.17963,-0.26391 0.29522,-0.38903c-0.33573,-0.0854 -0.6711,-0.17211 -1.00609,-0.26001c-11.91516,-2.64955 -23.11175,-6.912 -34.37317,-11.50046c-3.74194,-1.52466 -10.71046,-3.5726 -13.10803,-6.97733c-5.61835,-7.97848 3.35983,-5.10775 5.56314,-8.94887c0.49623,-0.8651 -1.23139,-2.28342 -1.38319,-2.45384c-0.92545,-1.03898 -1.87279,-2.05825 -2.80983,-3.08679c-0.3843,-0.36488 -0.76727,-0.92199 -0.75119,-1.68607c-0.03134,-0.47329 0.08638,-1.00655 0.51347,-1.53773c0.37489,-0.56922 0.8465,-0.84457 1.30665,-0.95965c0.72467,-0.25002 1.37404,-0.05407 1.83936,0.20119c7.75563,3.55551 17.17457,3.26946 25.55346,3.27051c5.53983,0.00069 11.39371,0.51451 16.91055,0.01517c2.41667,-0.21874 4.13503,-1.78212 6.23564,-2.75765l0.8042,-0.9396c0,0 1.65135,-1.65135 3.35801,-0.1659c1.11891,-0.24939 2.12698,-0.47235 2.28199,-0.5068l0.83663,-0.05953c0,0 2.5,0 2.5,2.5c0,2.5 -2.5,2.5 -2.5,2.5l0.24802,-0.05953c-1.35525,0.30117 -2.74996,0.46133 -4.09002,0.81467c-2.31568,7.22643 2.88664,16.07894 7.48202,21.28339c0.90402,1.02384 1.91305,1.90181 2.83082,2.84764c0.65001,-0.38671 1.28053,-0.80029 1.86114,-1.28381c0.25731,-0.21428 0.49077,-0.46939 0.70505,-0.75438c-0.03817,-0.1891 -0.05918,-0.39728 -0.05918,-0.62647zM329.09334,201.32507c-0.13671,0.01019 -0.27403,0.02047 -0.41119,0.02987c-0.02674,0.06667 -0.05357,0.1333 -0.08051,0.19988c0.1643,-0.07897 0.32836,-0.15655 0.49169,-0.22976zM340.40918,193.28429c3.05671,-4.72235 6.21618,-9.3599 9.44047,-13.97227c0.26696,-0.38189 1.3481,-2.15864 2.51394,-3.65742c-1.05732,0.3009 -2.17284,0.47895 -3.21999,0.79239c-3.60074,1.07782 -9.21087,3.57061 -13.15236,2.11464c-0.17399,0.03833 -0.35478,0.05853 -0.54028,0.05853c-0.85779,0 -1.61468,-0.43201 -2.06496,-1.09033c0.0529,4.15985 -0.38158,8.30773 -1.22556,12.38283c3.42353,-1.153 7.10924,0.36789 8.24874,3.37163zM335.95749,195.61533c-0.02725,-0.23102 -0.05411,-0.46203 -0.08072,-0.69299c-0.0964,-0.83674 -1.84213,-0.58829 -2.52502,-0.09526c-0.42853,0.30938 -0.72696,0.75155 -1.0024,1.21768c0.5406,0.01098 1.08435,0.03108 1.61091,-0.03778c0.67404,-0.08815 1.33823,-0.22642 1.99723,-0.39164zM332.01408,201.24474c1.05593,0.86144 0.69127,2.70544 0.60573,4.25849c0.76483,-0.87651 2.09027,-1.60208 2.39891,-1.86572c0.32894,-0.28099 0.65572,-0.56461 0.98134,-0.84964c-0.25329,-0.39093 -0.40037,-0.85708 -0.40037,-1.35758v-0.6089c-1.25284,0.19032 -2.54575,0.35313 -3.58561,0.42336zM269.59679,165.70311c0.19003,-0.22528 0.36251,-0.46207 0.5141,-0.71109c0.21631,-0.35531 -0.20626,-0.80795 -0.35582,-1.19611c-0.18391,-0.47731 -2.82762,-6.90223 -3.60645,-6.40601c-1.652,1.05253 -2.01572,3.35927 -3.02988,5.03511c-0.41457,0.68505 -0.83841,1.32245 -1.2536,1.93773c1.80357,2.17207 2.10154,2.57042 5.30735,2.48845l-0.77496,-0.53326c0,0 1.39659,-1.74573 3.19925,-0.61482zM301.60603,198.33851h-2.06013c-0.7959,-0.09236 -1.59246,-0.37505 -2.38769,-0.27708c-1.02877,0.12674 0.12279,2.11638 -0.19299,3.10366c-1.02547,3.20606 -4.20294,8.35548 -8.33693,8.16088c3.71402,1.19314 7.48747,2.25469 11.38441,3.1201c2.98148,0.78504 6.00625,1.5628 9.06374,2.07268c1.52959,-0.80554 3.06389,-1.73006 4.64028,-2.77456c-2.15835,-2.60282 -4.79951,-4.85663 -6.57381,-7.80377c-1.28585,-2.13582 -2.42367,-4.49137 -3.26555,-6.9473c-0.6173,1.34539 -2.27133,1.34539 -2.27133,1.34539zM282.92317,199.80888c-0.55982,-1.09741 -2.45234,-0.307 -3.68422,-0.29315c-2.04283,0.02297 -4.76017,0.06296 -6.73745,-0.35716c-4.26547,-0.9063 -8.31638,-3.54119 -12.22311,-5.68682c-1.16268,1.24341 -2.89634,2.64026 -4.30554,2.69969c0.89972,0.56458 1.74477,1.22433 2.69359,1.70064c3.75205,1.88354 7.87446,3.22964 11.77375,4.76263c5.31881,2.09107 10.54158,4.13013 15.85981,5.92422c-1.88877,-1.65837 -2.50139,-7.03395 -3.37682,-8.75004zM273.61564,194.28428c4.04679,0.84123 10.05477,-1.48924 13.12263,2.29273c1.00463,1.23848 0.99438,3.03291 1.59033,4.51209c0.44401,1.10205 0.99871,2.25454 0.93073,3.44073c-0.01089,0.18996 0.07579,-0.3832 0.18218,-0.54095c0.38751,-0.57457 0.90327,-1.05603 1.28499,-1.63446c0.51349,-0.77811 1.14651,-1.52588 1.39376,-2.42476c0.24703,-0.89807 -0.33018,-1.94002 0.04174,-2.79396c2.03002,-4.66089 2.94973,-3.53441 7.3839,-3.79718h2.06013c0,0 0.68926,0 1.34395,0.36191c-0.45671,-2.08395 -0.66671,-4.20057 -0.54646,-6.28247c-1.12231,0.55865 -2.30637,1.02479 -3.76204,1.19361c-5.63351,0.65334 -11.7867,0.01543 -17.45675,0.01468c-6.43759,-0.00085 -13.22621,0.03432 -19.6456,-1.24738c0.16802,0.42053 0.29452,0.85278 0.36891,1.29773c3.71728,2.02857 7.6694,4.76824 11.7076,5.60769z" fill="#193ea9" stroke-width="0.5"/><path d="M287.57647,282.72713c-0.24499,1.22493 -0.97963,1.71538 -1.65342,1.89952c-0.03294,0.32495 -0.0672,0.64903 -0.10266,0.97251c0.62061,0.55474 1.10435,1.3399 1.8818,1.63059c2.35522,0.88062 5.22134,-2.81609 6.59755,2.56754c0.44074,1.72415 -1.56582,3.19747 -2.41648,4.76058c-2.06775,3.79958 -5.56662,12.32149 -11.09892,5.97243c-1.17824,-1.35219 -0.94386,-3.48004 -1.10115,-5.26663c-0.37032,-4.20614 1.15129,-9.26741 1.47768,-13.51288l4.45445,-1.96541c0,0 2.45145,0.49029 1.96116,2.94174zM285.07673,291.414c-0.04072,0.28983 -0.08184,0.58043 -0.12327,0.87197c-0.13302,0.93589 -0.23701,1.87813 -0.27267,2.82275c-0.03357,0.88933 0.05461,3.55824 0.08097,2.66867c0.03142,-1.06045 1.06189,-3.95447 2.4571,-5.561c-0.39366,-0.03236 -0.77903,-0.1136 -1.13934,-0.25728c-0.35615,-0.14202 -0.6869,-0.33007 -1.00278,-0.54511z" fill="#193ea9" stroke-width="0.5"/></g></g></svg>