<svg version="1.1" xmlns="http://www.w3.org/2000/svg" xmlns:xlink="http://www.w3.org/1999/xlink" width="62.4912" height="92.11316" viewBox="0,0,62.4912,92.11316"><g transform="translate(-315.52553,-179.42598)"><g data-paper-data="{&quot;isPaintingLayer&quot;:true}" fill="#ff0000" fill-rule="nonzero" stroke="#000000" stroke-width="3" stroke-linecap="round" stroke-linejoin="miter" stroke-miterlimit="10" stroke-dasharray="" stroke-dashoffset="0" style="mix-blend-mode: normal"><path d="M327.4391,213.11894l-10.244,4.6783l2.50269,-36.35425c0.17281,0.03778 -0.34004,1.78854 -0.1559,1.78854c0.87401,0 -0.01836,-0.8639 0.42854,-1.54331l25.32127,22.15863l-9.56355,5.34403c0,0 2.03376,5.08734 5.92876,9.18557c3.01666,3.17406 7.57535,5.34806 10.48075,6.67641c6.54457,2.99217 23.75999,2.43227 23.75999,2.43227l-14.11697,41.45795c0,0 -16.20964,-14.08641 -21.49248,-22.74846c-0.66747,-1.09443 -5.26418,-7.80219 -7.18477,-11.90876c-0.03883,-0.08303 -0.06873,-0.16988 -0.10241,-0.25498c-3.99543,-10.09676 -5.23015,-20.85222 -5.23015,-20.85222z"/></g></g></svg>