<svg version="1.1" xmlns="http://www.w3.org/2000/svg" xmlns:xlink="http://www.w3.org/1999/xlink" width="754.24928" height="442.03152" viewBox="0,0,754.24928,442.03152"><g transform="translate(36.08679,-8.06139)"><g data-paper-data="{&quot;isPaintingLayer&quot;:true}" fill-rule="nonzero" stroke="none" stroke-width="0.5" stroke-linecap="butt" stroke-linejoin="miter" stroke-miterlimit="10" stroke-dasharray="" stroke-dashoffset="0" style="mix-blend-mode: normal"><path d="M-17.64792,83.23981c-0.60634,2.42536 -3.0317,1.81902 -3.0317,1.81902l-1.15529,-0.28882c-1.82537,-0.48751 -3.92933,-0.3776 -5.47612,-1.46253c-1.87109,-1.3124 -4.14608,-3.08682 -4.26397,-5.36924c-0.18369,-3.55621 7.38696,-4.8675 9.0103,-5.34397c5.7372,-1.63666 11.12107,-4.15936 16.81698,-5.87534c6.36233,-1.91676 13.20305,-3.22637 19.71546,-4.55426c0.20259,-0.04131 0.40545,-0.08202 0.60857,-0.12217c-0.17594,-0.40777 -0.28423,-0.84815 -0.31089,-1.32404c-0.03013,-0.53787 6.48579,-6.81126 8.27956,-7.43446c1.97988,-0.68786 4.21423,-0.93491 6.48616,-1.07725c-0.75114,-1.94769 -1.03681,-4.07228 -1.61191,-6.08687c2.29949,-1.04704 4.3992,-2.77012 6.89846,-3.14113c3.42932,-0.50908 7.2412,2.67177 9.7146,4.31208c1.2259,0.81299 2.56998,1.47757 3.7236,2.38293c4.50326,-0.79829 9.01008,-1.541 13.63131,-2.01236c6.73043,-0.68585 13.31878,-1.87782 20.08847,-2.0212l0.01088,0.0034l-0.00004,-0.00355l3.51138,-0.04086c0.0113,-0.00015 0.02262,-0.00023 0.03395,-0.00023c1.38071,0 2.5,1.11929 2.5,2.5c0,0.99801 -0.58479,1.85943 -1.43041,2.26029l-2.95456,1.47728c-3.92741,2.92387 -9.22404,3.45415 -13.35717,5.92075c-1.0088,0.60204 -3.37069,2.75129 -5.30027,4.3531c0.527,0.091 0.98065,0.30053 1.28916,0.73734c1.21394,1.7187 1.45494,4.61826 0.20275,6.3093c-1.01882,1.37588 -4.00718,1.94071 -6.8221,2.18085l-0.03638,0.01819c0,0 -1.08917,0.54459 -2.12729,0.11345c-1.12205,0.04453 -2.10291,0.05183 -2.76465,0.06226c-1.91177,0.03014 -3.91154,0.51972 -5.73974,-0.02533c-0.00483,0.00378 -0.00966,0.00757 -0.01449,0.01136c0.34513,0.81104 0.71837,1.59667 1.16079,2.32104c1.35599,2.22016 3.73905,3.83357 4.64359,6.27275c0.88735,2.39283 0.27399,5.27005 1.5015,7.50751c1.04981,1.91354 7.76648,8.17563 6.03344,10.98614c-3.06022,4.96283 -8.74045,2.90715 -12.36335,1.31457c-2.64262,-1.16166 -4.72661,-3.42646 -7.41957,-4.46609c-1.60425,-0.61933 -3.46939,-0.49116 -4.99782,-1.27925c-5.09244,-2.62577 -6.94202,-6.21152 -7.05599,-11.54096c0.12446,-1.43911 -0.51142,-3.17554 0.37337,-4.31733c2.22035,-2.86528 6.44309,-3.39086 9.34006,-5.56971c1.03728,-0.78015 2.04184,-1.58587 3.03383,-2.40161c-0.0862,-0.19365 -0.17525,-0.38565 -0.26792,-0.57557c-5.79851,-0.48094 -11.61334,-1.42112 -17.24129,-2.58378c-1.0979,-0.22681 -2.86759,-0.54993 -4.66748,-1.1034c-1.88729,0.29345 -3.75771,0.60939 -5.59506,0.98418c-6.36103,1.29753 -13.04574,2.56791 -19.26019,4.44012c-5.7169,1.72231 -11.12641,4.24755 -16.88568,5.8955c-1.4649,0.40497 -2.89635,0.96018 -4.39469,1.21492c-0.14813,0.02518 -0.41358,-0.05345 -0.64254,-0.13951c1.76508,0.73015 3.84804,1.0414 5.6061,1.44201l1.15529,0.28882c0,0 2.42536,0.60634 1.81902,3.0317zM42.44106,61.51904c0.31708,0.19928 0.63876,0.39499 0.96004,0.58838c0.06147,-0.01079 0.12251,-0.01924 0.18304,-0.02494c3.14371,-0.29604 6.29278,-0.68965 9.36769,-1.40763c2.31278,-0.54002 4.83622,-0.34943 7.00003,-1.32846c2.84618,-1.28777 4.60584,-4.29098 7.28908,-5.89077c1.47288,-0.87815 3.15751,-1.33878 4.73873,-2.00233c0.05699,-0.02392 0.11386,-0.04822 0.17061,-0.07289c-3.41161,0.41005 -6.81645,0.90403 -10.25573,1.25515c-3.48303,0.35527 -6.93495,0.85577 -10.37501,1.4107c-0.00588,0.05514 -0.01453,0.11079 -0.0261,0.16697c-0.02664,0.12931 -5.51747,5.82881 -7.39177,6.63535c-0.54861,0.23607 -1.10232,0.45918 -1.66062,0.67046zM40.53724,50.96564c-3.04283,-2.04869 -4.67914,-3.10044 -8.5623,-2.78531c0.94056,1.2724 2.01413,2.44608 3.03002,3.66119c0.54256,-0.05516 1.07546,-0.1224 1.59528,-0.20697c1.31873,-0.21457 2.63018,-0.43926 3.937,-0.6689zM19.62645,61.14161c4.63928,-0.76253 9.33772,-1.42093 13.90196,-2.46144c-0.24484,-0.55374 -0.50534,-1.09846 -0.82924,-1.60539c-1.32405,0.17271 -2.65149,0.32914 -3.98341,0.46421c-1.43854,0.14588 -2.94629,-0.06068 -4.32021,0.38991c-0.86967,0.28522 -1.3253,1.29959 -2.13462,1.72701c-0.92941,0.49084 -2.75715,-0.04087 -2.99616,0.98266c-0.0656,0.28092 0.09053,0.42713 0.36167,0.50304zM44.55563,74.89343c-1.94178,1.7272 -3.90785,3.39735 -6.38184,4.68175c-1.13062,0.58697 -2.64768,0.48866 -3.56788,1.36961c-0.41642,0.39866 0.24892,1.12578 0.37337,1.68868c-0.1066,3.28476 0.92847,5.51121 4.26361,7.05471c1.46451,0.67778 3.20173,0.55575 4.70361,1.1461c2.74563,1.07923 4.95184,3.2335 7.59544,4.54292c0.11993,0.0594 4.62897,2.12235 5.65467,1.31457c0.3949,-0.311 -0.95338,-0.38641 -1.31843,-0.73197c-0.55267,-0.52315 -0.92531,-1.20852 -1.37788,-1.82033c-1.10085,-1.48821 -2.42605,-2.83837 -3.28227,-4.47958c-1.18042,-2.26266 -0.66976,-5.09478 -1.5015,-7.50751c-0.78336,-2.27237 -3.11417,-3.68702 -4.36541,-5.73926c-0.29782,-0.48848 -0.55791,-0.9979 -0.79549,-1.5197zM35.64722,63.83006c-0.02127,-0.09214 -0.04162,-0.18496 -0.06126,-0.27829c-0.22706,0.05226 -0.4545,0.10344 -0.68231,0.15358c0.24765,0.04168 0.49551,0.08329 0.74356,0.12471zM43.81075,55.34508c-1.35006,0.23027 -2.7005,0.45844 -4.05251,0.67901l0.27463,0.82388c1.28027,-0.44443 2.54116,-0.94137 3.77788,-1.50289z" fill="#ff0000"/><path d="M718.16246,28.57941c0,2.5 -2.5,2.5 -2.5,2.5l-4.10682,-0.03183c-7.71256,2.61436 -15.76856,3.92557 -23.45169,6.47585c-5.74464,1.90683 -10.95413,4.42541 -16.83795,6.03615c-8.00822,2.1923 -15.99966,4.44275 -23.92434,6.92474c-6.25709,1.95971 -12.46535,4.59114 -18.82933,6.15926c-6.46927,1.59406 -13.32551,2.20937 -19.8915,3.35408c-6.5968,1.15008 -13.15638,2.43917 -19.78721,3.38255c-1.24565,0.17722 -5.87209,1.07152 -7.81081,0.73223h-5c-1.38071,0 -2.5,-1.11929 -2.5,-2.5c0,-0.87679 0.45137,-1.64817 1.13442,-2.09443l2.62531,-1.76911l0.09059,0.13443l0.28942,-0.34498c2.57217,-0.66048 5.15356,-1.32681 7.63868,-2.263c3.05033,-1.14387 6.17663,-2.10113 9.1546,-3.42197c5.24258,-2.32528 9.8985,-6.28011 14.96339,-8.98336c7.62043,-4.0672 15.80983,-7.25883 23.82479,-10.72304c-0.85667,0.16563 -1.71567,0.3297 -2.57711,0.49291c-8.51341,1.61299 -16.98471,3.72319 -25.51046,5.30916c-0.07939,1.0614 -0.55501,2.38714 -1.57999,4.10414c-0.11547,0.19343 -9.42817,3.89079 -10.24652,4.21787c-4.12639,1.64927 -8.41156,2.5304 -12.61262,3.94189c-6.08573,2.04469 -12.00607,5.05556 -18.40899,6.10312c-1.93381,0.31638 -10.73953,0.53894 -12.07383,-0.43992c-1.29829,-0.95245 -0.58405,-3.17119 -0.73569,-4.77422c-0.04189,-0.4428 -0.03279,-1.95661 0.0133,-3.48292c-2.97007,-0.0052 -7.34607,-0.09209 -7.83663,-0.39646c-1.2664,-0.78574 -2.2161,-2.93998 -2.70317,-5.29394c-1.01964,-0.07134 -2.02047,-0.18041 -2.99452,-0.33869h-5v0c-1.38071,0 -2.5,-1.11929 -2.5,-2.5c0,-1.07064 0.67301,-1.98409 1.61906,-2.34037l3.40405,-1.37258c2.8977,-1.15519 5.85383,-1.88606 8.84564,-2.39868c0.24313,-0.12234 0.47438,-0.25878 0.68299,-0.42098c1.18789,-0.92363 1.90241,-2.44782 3.23303,-3.1504c1.32808,-0.70123 8.80382,-2.15479 10.47301,-2.4974c6.36146,-1.3057 13.06232,-1.04256 19.63389,-0.89401c2.09304,-1.27523 4.19401,-2.6626 6.32394,-3.97987c-3.13971,-0.0646 -6.38818,-0.17919 -9.42722,0.02259c-2.54645,0.16908 -4.97682,1.17186 -7.50751,1.5015c-3.94735,0.51417 -8.27917,0.01217 -12.25836,0.01217c0,0 -2.5,0 -2.5,-2.5c0,-2.5 2.5,-2.5 2.5,-2.5c3.80262,0 7.99988,0.51936 11.76567,0.01217c2.52922,-0.34065 4.96174,-1.32241 7.50751,-1.5015c5.83996,-0.41084 11.90476,-0.01217 17.75385,-0.01217c0.1881,0 0.88757,-0.00155 1.84525,-0.00224c8.77877,-3.6747 18.33431,-6.15805 27.37236,-8.71412l0.26864,0.03958l-0.00466,-0.07106l3.87428,-0.25422c0.06196,-0.0046 0.12455,-0.00694 0.18769,-0.00694c1.38071,0 2.5,1.11929 2.5,2.5c0,0.52532 -0.16203,1.0128 -0.43883,1.41519l-2.75454,4.13181l-0.12007,-0.08005c-0.20228,0.29051 -0.42258,0.56876 -0.66519,0.83183c-0.89155,0.96676 -2.63727,0.24218 -3.89555,0.62456c-4.24705,1.29065 -8.51515,3.61519 -12.59746,5.47833c-0.08837,0.81008 -0.40774,1.67376 -1.02126,2.57361c-1.06095,1.5561 -3.63955,1.13939 -5.21828,2.16635c-1.14161,0.74261 -1.8496,2.00538 -2.82581,2.95579c1.28251,0.82128 2.39185,1.53279 2.74407,1.75157c0.42903,0.26649 0.86585,0.51306 1.29577,0.7519c9.54971,-1.63011 19.06232,-3.61611 28.66244,-5.435c9.42384,-1.78548 18.55748,-3.65489 27.54231,-6.63698c2.23925,-1.36525 6.09135,-3.87687 6.66563,-3.92919c0.22417,-0.02042 0.44652,-0.02279 0.66733,-0.00996v-0.08075h3.003c1.38071,0 2.5,1.11929 2.5,2.5c0,0.99801 -0.58479,1.85943 -1.43041,2.26029l-2.95456,1.47728l-0.01613,-0.03226l-0.07777,0.07679c-2.2507,0.90205 -4.50802,1.72134 -6.77432,2.47294c-3.22242,1.65334 -6.56536,2.92079 -9.90215,4.45902c-5.51277,2.54134 -10.80679,5.56333 -16.33408,8.07282c-6.85214,3.111 -14.29971,5.41254 -20.92951,8.96454c-5.10628,2.73575 -9.78156,6.66727 -15.06664,9.03466c-0.08409,0.03767 -1.74672,0.66407 -3.66397,1.38436c0.02206,-0.00351 0.04412,-0.00705 0.06616,-0.01061c6.5738,-1.06224 13.10868,-2.38531 19.6763,-3.49043c4.80829,-0.80908 9.87581,-1.2848 14.60876,-2.45102c6.2611,-1.54277 12.37242,-4.14698 18.52902,-6.07525c7.98312,-2.50034 16.03338,-4.76804 24.10068,-6.97652c5.80662,-1.5896 10.90837,-4.07541 16.583,-5.959c7.91804,-2.62826 16.25567,-4.08265 24.23147,-6.66678l4.90219,-0.03183c0,0 2.5,0 2.5,2.5zM554.29301,47.39714c0.09663,0.23764 0.19205,0.47778 0.20578,0.70179c0.06124,0.99913 0.17133,2.01677 0,3.003c-0.08186,0.4712 -1.20406,1.13502 -0.73569,1.23178c1.03508,0.21384 2.03249,-0.61811 3.08152,-0.74716c1.54095,-0.18956 3.12136,0.04845 4.6532,-0.20435c7.74059,-1.2774 15.03854,-5.17256 22.54408,-7.31649c4.21607,-1.2043 7.97973,-3.02768 12.14204,-4.32026c1.08001,-0.33539 2.42029,0.04739 3.33629,-0.61581c0.08807,-0.06376 0.15342,-0.14987 0.19885,-0.25046c-8.02865,1.2469 -16.03918,1.94309 -24.07693,2.31668c-1.38927,0.7759 -2.80823,1.5268 -4.34205,2.16214c-5.01639,2.07787 -11.38158,3.43967 -17.00709,4.03913zM593.35648,22.08317c-0.92237,0.39854 -1.83501,0.8118 -2.7362,1.24153c-0.45457,0.21676 -0.90701,0.44404 -1.35753,0.68007c1.74451,-0.35318 3.46558,-0.76056 5.12108,-1.30053c0.61717,-0.20131 1.22956,-0.41844 1.83797,-0.64881c-0.2315,0.00732 -0.46299,0.01276 -0.69447,0.01498c-0.7236,0.00694 -1.44722,0.01087 -2.17084,0.01276zM585.43879,31.25786c-1.29427,-0.14531 -2.72164,-0.18422 -4.43098,-0.17845c-0.47269,0 -0.94715,-0.00319 -1.42312,-0.00879c-1.21242,0.31976 -2.42345,0.66698 -3.63453,1.02464c-2.47316,1.48243 -4.89528,2.95259 -7.27824,4.47017c1.8287,-0.03304 3.65123,-0.09894 5.46841,-0.1943c2.68144,-1.48833 5.29182,-3.04612 8.36053,-4.07778c0.98356,-0.3251 1.96779,-0.6632 2.93794,-1.03549zM551.33276,42.40028c0.36477,-0.25972 0.75214,-0.49792 1.14588,-0.73006c-2.8659,0.11481 -5.84956,0.31708 -8.78137,0.36286c0.03154,0.44417 0.19004,0.7903 0.60684,0.93622c0.85587,0.29964 1.78895,-0.32924 2.69468,-0.37337c1.44241,-0.07028 2.89043,-0.11213 4.33397,-0.19565zM592.41149,33.67077c-0.83818,0.43395 -1.69539,0.83458 -2.56345,1.20908c1.23379,-0.1635 2.46616,-0.33626 3.69738,-0.51717c-0.39145,-0.24848 -0.76839,-0.47869 -1.13392,-0.69191zM560.60865,35.90941c-2.14676,0.29493 -4.31046,0.49434 -6.47457,0.68051c1.83495,0 3.66991,0 5.50486,0c0.32264,-0.22867 0.64587,-0.45546 0.9697,-0.68051zM605.94224,17.5323c-0.78619,0.24412 -1.57091,0.49282 -2.35327,0.74701c0.12233,0.08345 0.24194,0.1702 0.35845,0.26014c0.66525,-0.33445 1.3298,-0.67142 1.99482,-1.00715z" fill="#ff0000"/><path d="M457.9072,391.94277c0,-2.5 2.5,-2.5 2.5,-2.5h2.50751c2.96418,0.02443 6.0276,0.25893 8.7936,1.32486c6.64993,2.65997 15.15798,4.90127 20.49669,9.91789c1.90975,1.79453 2.76306,5.61539 4.5045,7.50751c2.01968,2.19442 5.56403,2.51306 7.64305,4.65135c2.0135,2.0709 2.04266,5.41417 3.33035,7.99964c3.00535,6.03424 7.6464,9.55093 11.76925,14.6278c2.07394,2.55384 2.92874,7.9023 5.92007,9.5588c0.40237,0.22282 0.70928,-0.59459 0.99904,-0.95179c0.62811,-0.77429 1.23991,-1.56979 1.7442,-2.42987c0.74283,-1.26692 1.32424,-2.62182 1.98636,-3.93274c3.59947,-22.6265 6.5299,-45.43428 7.38655,-68.38507c0.36555,-9.79362 -0.00159,-19.67406 -0.00159,-29.47545c0,-5.37698 -0.00572,-10.75404 -0.00813,-16.13109c-4.47476,-0.4427 -8.8565,-1.25333 -13.03533,-2.66477c-4.63115,-1.56421 -9.33663,-4.73335 -13.69767,-6.95849c-5.89813,-3.00942 -12.41617,-5.93779 -17.86297,-9.71387c-0.12675,-0.08787 -7.57075,-6.44296 -7.80514,-6.64437c-1.37017,-1.17738 -2.94152,-2.15835 -4.09942,-3.54503c-0.20685,-0.24772 -4.85148,-8.2747 -5.18084,-8.84215c-0.91319,-1.7787 -3.63864,-3.55021 -2.73957,-5.33609c1.6658,-3.3089 9.22107,-2.97467 12.1422,-3.04185c1.86693,-0.04293 3.77706,-0.48348 5.6016,-0.08563c4.36708,0.95224 8.37132,4.53912 12.56254,6.11721c3.05475,1.15018 6.25671,1.86317 9.38183,2.80553c9.25272,2.79009 18.4296,8.14489 24.76524,15.6814c0.00854,-1.92697 0.0191,-3.85392 0.0321,-5.78087c0.03279,-4.86016 -0.18241,-5.43306 0.73387,-10.13827c-0.76195,-0.30985 -1.5226,-0.62252 -2.2781,-0.94631c0,0 -2.29786,-0.9848 -1.31306,-3.28266c0.9848,-2.29786 3.28266,-1.31306 3.28266,-1.31306c0.03243,0.0139 0.37413,0.16029 0.90916,0.38954c0.19198,-0.5827 0.49385,-1.09558 0.98067,-1.48883c5.90565,-4.77055 8.60286,2.30879 9.99627,5.57638c0.17759,0.41646 0.32704,0.84161 0.45541,1.2733c1.79705,1.13941 3.56241,2.33714 5.51416,3.16641c3.08259,1.30975 6.59207,1.43474 9.64878,2.8038c4.47128,2.00262 8.81876,5.49912 13.02277,8.04166c1.34671,0.81447 7.92941,4.70137 8.92298,5.71012c4.49549,4.5642 4.97091,11.58547 -1.2073,15.06569c-0.03974,0.02239 -6.78635,1.52082 -8.26507,1.76143c-0.42214,0.06869 -9.77022,1.39138 -10.13574,1.44319c-2.69493,0.0216 -5.44927,0.10321 -8.23667,0.18898c2.30126,7.93908 5.65297,15.67446 8.24629,23.48375c1.55042,4.6688 2.81549,9.4139 4.06674,14.15991c0.78834,1.85275 1.51338,3.72086 2.02707,5.59383c0.62774,2.28882 1.05522,4.63339 1.4592,6.98426c0.21724,0.7071 0.43964,1.4127 0.66813,2.11655c2.15738,6.64546 5.24835,12.35475 6.25366,19.34321c0.29762,2.06892 1.2279,6.98948 0.73223,9.31231v5c0,1.38071 -1.11929,2.5 -2.5,2.5c-1.38071,0 -2.5,-1.11929 -2.5,-2.5v-4.30772c-1.64207,-7.6093 -4.12094,-14.88547 -5.99351,-22.42284c-0.9978,-4.01629 -1.45698,-8.18639 -2.33839,-12.23641c-0.4364,-1.54924 -0.86639,-3.10036 -1.29892,-4.65172c-1.15447,-3.22783 -2.79248,-6.4362 -4.04019,-9.54107c-4.30642,-10.71636 -9.98198,-20.60607 -16.39814,-30.22609c-0.52668,-0.79002 -1.04604,-1.58676 -1.56061,-2.38805c-1.31099,-0.01714 -2.62025,-0.0521 -3.92516,-0.11047c0.00542,5.25985 0.01439,10.51967 0.01439,15.77926c0,9.86104 0.3656,19.80033 -0.00159,29.65368c-0.87098,23.37258 -3.64832,46.74831 -7.62846,69.75306c-1.53222,3.08909 -4.92053,11.99376 -10.28542,10.70362c-5.37477,-1.29252 -6.2058,-7.94489 -9.09494,-11.46222c-2.10559,-2.5634 -4.97895,-4.43453 -7.04132,-7.03283c-2.0434,-2.5744 -3.74647,-5.42816 -5.21346,-8.3694c-0.77656,-1.55696 -1.32747,-3.21705 -1.94749,-4.8427c-0.27219,-0.71367 -0.17715,-1.64373 -0.72817,-2.17268c-2.05928,-1.97679 -5.41723,-2.27743 -7.37196,-4.35766c-1.99846,-2.12678 -2.35716,-5.53116 -4.5045,-7.50751c-4.83092,-4.44624 -12.85065,-6.42405 -18.81811,-8.81104c-2.15232,-0.90433 -4.60218,-0.9905 -6.93665,-0.96724h-2.50751c0,0 -2.5,0 -2.5,-2.5zM542.47908,308.401c2.31094,3.5432 4.47995,7.22672 6.71187,10.8261c1.34286,-0.00765 2.68573,-0.03088 4.02528,-0.06291c-0.04939,-0.23422 -0.09772,-0.46859 -0.14496,-0.7031c-1.64116,-8.20582 -4.16196,-15.96777 -6.21659,-24.05585c-0.45967,-1.80949 -0.72304,-3.66601 -1.07789,-5.49974c-0.34161,-0.19439 -0.59314,-0.33393 -0.71843,-0.3965c-0.62776,-0.31348 -1.26294,-0.61094 -1.90316,-0.89753c-0.30372,4.39907 -0.61531,8.65929 -0.64297,13.13495c-0.01577,2.55147 -0.02634,5.10301 -0.03315,7.65458zM551.48595,292.22201c0.06407,0.31957 0.1348,0.63723 0.21481,0.95217c2.07518,8.16895 4.61556,16.01705 6.27342,24.30633c0.10162,0.51208 0.20945,1.02304 0.32301,1.53295c3.10315,-0.10172 6.16473,-0.20455 9.14181,-0.22163c4.07896,-0.58761 8.14806,-1.14826 12.19965,-1.8935c1.76311,-0.3243 5.15019,-0.09194 6.0865,-2.48884c2.00924,-5.14357 -6.87252,-8.55314 -9.81668,-10.33341c-4.02753,-2.43535 -8.19468,-5.83796 -12.47923,-7.75695c-3.02757,-1.35601 -6.50704,-1.46791 -9.56024,-2.76517c-0.23664,-0.10055 -1.18642,-0.63973 -2.38303,-1.33194zM537.47763,318.72366c0.00026,-2.8145 0.0022,-5.629 0.0071,-8.44349c-3.17158,-4.56213 -6.67608,-8.85214 -11.01554,-12.43769c-5.54662,-4.58299 -13.23618,-6.65491 -19.94918,-8.67501c-4.68169,-1.40883 -8.50779,-3.18788 -12.87086,-5.38012c-1.31019,-0.65831 -2.48024,-1.69742 -3.91286,-2.0098c-2.97289,-0.64824 -6.08288,0.45187 -9.12268,0.31811c-0.95335,-0.04195 -2.03444,-0.98383 -2.82687,-0.45216c-0.6457,0.43322 1.43282,0.60454 2.14923,0.90681c1.63842,2.80753 2.79662,5.94787 4.8801,8.44302c0.97864,1.17201 2.34212,1.95958 3.50721,2.94644c2.47988,2.10051 4.73726,4.48695 7.40812,6.33857c5.26253,3.64833 11.5871,6.46163 17.28655,9.36914c4.14256,2.11328 8.62413,5.18868 13.02538,6.67524c3.66387,1.23751 7.50516,1.97747 11.43431,2.40093zM543.21906,319.136c-0.25,-0.40095 -0.50011,-0.8019 -0.75064,-1.2026c0.00006,0.38992 0.00016,0.77984 0.0003,1.16976c0.24992,0.01188 0.50004,0.02281 0.75034,0.03284zM552.35785,324.16139c1.3221,1.99098 2.61309,3.99355 3.86779,6.01232c-0.65375,-2.01101 -1.26514,-4.02939 -1.81303,-6.05708c-0.68405,0.01696 -1.3691,0.03214 -2.05476,0.04475z" fill="#ff0000"/><path d="M-36.08678,334.8857c0,-2.5 2.5,-2.5 2.5,-2.5l0.71093,0.12829c3.93471,-1.30767 7.42898,-3.3616 11.32192,-4.68272c3.13531,-1.06401 6.59429,-0.99102 9.69963,-2.13955c4.59779,-1.70053 8.60377,-5.13534 13.13412,-7.02882c4.51238,-1.88598 9.61035,-2.99783 14.28889,-4.4348c7.11247,-4.11897 14.34494,-8.06513 21.3832,-12.30873c7.13942,-4.3046 13.9098,-9.42649 21.23231,-13.40776c5.78935,-3.14768 12.41697,-4.9602 18.07102,-8.33427c5.96925,-3.56216 9.99654,-8.40766 16.75613,-10.64677c1.74241,-0.57717 3.4059,-1.76109 5.24011,-1.6921c0.16997,0.00639 0.33791,0.02257 0.5041,0.04724l0.00477,-0.05531l2.63446,0.22741c1.29161,0.09743 2.30929,1.17629 2.30929,2.49283c0,0.88153 -0.45626,1.6565 -1.14551,2.10163l-4.06016,2.70677c-1.16533,0.93327 -2.33067,1.86653 -3.496,2.7998c-8.59526,6.87265 -17.88503,12.85718 -26.68292,19.47637c-10.49247,7.89412 -20.6293,16.26404 -31.77673,23.20698c-3.99087,2.48563 -6.2491,4.72702 -9.60414,8.03351c-0.01159,0.01142 -0.02315,0.02287 -0.03468,0.03436c2.65042,-0.93195 5.23558,-2.03387 7.78581,-3.31051c0.91059,-0.45584 8.02115,-4.66826 8.78268,-5.00882c0.14896,-0.06662 9.39318,-3.12974 9.6471,-3.21399c6.27656,-2.08226 12.83482,-3.57023 19.03169,-5.85631c10.00715,-3.69173 19.88985,-8.44314 29.75719,-12.54182c9.32082,-3.87167 19.41921,-10.07842 29.66997,-10.13645c0,0 2.5,0 2.5,2.5c0,2.5 -2.5,2.5 -2.5,2.5c-9.36959,-0.06506 -19.23021,6.21419 -27.75197,9.75395c-9.92724,4.12356 -19.86974,8.89754 -29.93799,12.61283c-6.25175,2.30696 -12.86266,3.81213 -19.19427,5.91338c-3.06004,1.01535 -6.24092,1.7179 -9.18401,3.03434c-3.00916,1.34599 -5.63443,3.43832 -8.58219,4.91396c-4.76436,2.38503 -9.58748,4.13401 -14.73192,5.44348l-0.21825,-0.04039l0.00516,0.06623l-4.29702,0.33458c-0.07304,0.00642 -0.14697,0.00969 -0.22167,0.00969c-1.38071,0 -2.5,-1.11929 -2.5,-2.5c0,-0.88153 0.45626,-1.6565 1.14551,-2.10163l3.7142,-2.47613c3.00177,-3.40847 6.18335,-6.82066 9.60347,-9.39549c3.79794,-2.85927 8.24689,-4.85446 12.13054,-7.59564c9.47364,-6.68674 18.47802,-14.20556 27.75094,-21.1816c1.88561,-1.41854 3.79971,-2.7974 5.72507,-4.16032c-4.75307,2.25849 -9.86166,3.93 -14.46147,6.43093c-7.25554,3.94485 -13.96418,9.03136 -21.03893,13.29696c-7.22345,4.35526 -14.64036,8.42693 -21.96517,12.60951c-4.68405,1.46993 -9.83204,2.57269 -14.36048,4.46538c-4.60287,1.9238 -8.64621,5.37355 -13.3278,7.10508c-3.47219,1.28422 -6.36733,1.01063 -9.82727,2.18481c-3.88089,1.31703 -7.41787,3.37778 -11.3476,4.69136l-2.29207,0.12829c0,0 -2.5,0 -2.5,-2.5z" fill="#ff0000"/><path d="M37.5237,175.67068c0.47581,1.69888 -1.22307,2.1747 -1.22307,2.1747l-0.80924,0.22665c-1.2895,0.339 -2.54104,1.14163 -3.86851,1.017c-1.6058,-0.15077 -3.62068,-0.44365 -4.49057,-1.80181c-1.35537,-2.11613 2.82797,-5.56571 3.65674,-6.42512c2.94554,-3.00835 5.36483,-6.43646 8.25733,-9.47902c3.23093,-3.39854 6.96733,-6.59201 10.49606,-9.68196c0.10977,-0.09612 0.21992,-0.19197 0.33042,-0.28757c-0.25037,-0.18852 -0.47066,-0.42068 -0.6533,-0.70313c-0.20644,-0.31924 1.5962,-6.44251 2.47818,-7.45144c0.97349,-1.11361 2.25704,-2.04589 3.60022,-2.92711c-1.14116,-0.93164 -2.05876,-2.1344 -3.11537,-3.16858c1.04392,-1.44552 1.72912,-3.2357 3.13176,-4.33656c1.92462,-1.51052 5.37327,-0.89243 7.46293,-0.7511c1.03571,0.07004 2.09201,0.0078 3.11568,0.15974c2.48199,-2.06314 4.98558,-4.09344 7.65415,-5.99736c3.88676,-2.7725 7.50955,-5.80566 11.60995,-8.25929l0.00786,-0.00172l-0.00127,-0.00216l2.13855,-1.25213c0.00688,-0.00404 0.01379,-0.00805 0.02073,-0.01201c0.84652,-0.4825 1.9239,-0.18741 2.4064,0.65911c0.34876,0.61188 0.29126,1.34438 -0.08711,1.88566l-1.2952,1.93822c-1.38613,3.1651 -4.44819,5.34116 -6.12025,8.2978c-0.40811,0.72165 -1.10511,2.86474 -1.72838,4.52112c0.35491,-0.12837 0.70626,-0.15844 1.04806,0.00156c1.34488,0.62952 2.50592,2.32302 2.32914,3.79739c-0.14383,1.19959 -1.77861,2.5902 -3.42053,3.72112l-0.01595,0.02387c0,0 -0.47746,0.71451 -1.2646,0.81296c-0.67237,0.41941 -1.27119,0.76666 -1.67325,1.0043c-1.16158,0.68656 -2.21655,1.68556 -3.5279,1.99027c-0.00164,0.00401 -0.00328,0.00802 -0.00491,0.01203c0.49502,0.37664 0.9984,0.72788 1.52279,1.01739c1.60721,0.88732 3.63209,1.04373 5.03906,2.22309c1.38023,1.15696 2.00965,3.13533 3.54414,4.07816c1.31234,0.80633 7.61869,2.29843 7.53831,4.62719c-0.14192,4.11214 -4.34286,4.8368 -7.12061,5.12644c-2.02615,0.21127 -4.0953,-0.44902 -6.10967,-0.14534c-1.2,0.18091 -2.29873,0.91128 -3.51122,0.96222c-4.03978,0.16973 -6.42683,-1.38235 -8.35913,-4.61001c-0.4266,-0.92581 -1.42327,-1.76821 -1.27981,-2.77744c0.36,-2.53263 2.76531,-4.33054 3.78003,-6.67876c0.36333,-0.8408 0.69766,-1.68584 1.02078,-2.53263c-0.12052,-0.0886 -0.24221,-0.1752 -0.3654,-0.25926c-3.72315,1.73147 -7.61678,3.18709 -11.47359,4.44099c-0.75239,0.24461 -1.9503,0.66494 -3.24723,0.95459c-1.05455,0.83944 -2.0909,1.68678 -3.08641,2.55864c-3.44653,3.01843 -7.10099,6.13333 -10.25682,9.45288c-2.90317,3.05377 -5.33728,6.4924 -8.29241,9.51539c-0.75661,0.76021 -1.44021,1.60084 -2.26983,2.28063c-0.08202,0.0672 -0.27225,0.11176 -0.4427,0.13901c1.33733,-0.16917 2.72317,-0.70625 3.94103,-1.075l0.80924,-0.22665c0,0 1.69888,-0.47581 2.1747,1.22307zM66.77386,141.35503c0.26404,0.01137 0.52966,0.01895 0.79422,0.02524c0.03392,-0.0281 0.06839,-0.05461 0.10351,-0.07926c1.82396,-1.2801 3.61711,-2.62189 5.25144,-4.13664c1.22926,-1.13931 2.84298,-1.90429 3.82749,-3.2607c1.29498,-1.78416 1.32433,-4.24036 2.41037,-6.15887c0.59615,-1.05311 1.46803,-1.92423 2.20559,-2.88362c0.02658,-0.03458 0.05296,-0.06935 0.07913,-0.10431c-1.94837,1.44362 -3.86326,2.93633 -5.84918,4.35349c-2.0113,1.43499 -3.95277,2.94815 -5.86796,4.49054c0.01566,0.03586 0.02981,0.073 0.04235,0.11149c0.02886,0.08859 -1.34584,5.50178 -2.21313,6.65126c-0.25386,0.33645 -0.51537,0.66674 -0.78383,0.99138zM61.91865,135.55003c-2.5815,-0.19271 -3.95226,-0.26572 -6.22291,1.28449c1.02131,0.45142 2.08967,0.79584 3.13714,1.18582c0.31337,-0.22342 0.61659,-0.45087 0.90574,-0.68438c0.73353,-0.59239 1.45907,-1.18845 2.18003,-1.78592zM52.65428,149.09639c2.57788,-2.08874 5.22842,-4.13432 7.66315,-6.36727c-0.34362,-0.25394 -0.69369,-0.49687 -1.06943,-0.69448c-0.75142,0.56859 -1.51061,1.12838 -2.28001,1.67664c-0.83099,0.59215 -1.82758,0.9924 -2.51247,1.74879c-0.43352,0.47878 -0.35839,1.25992 -0.70522,1.80479c-0.39829,0.62573 -1.7047,0.93845 -1.49355,1.6495c0.05795,0.19516 0.20477,0.23024 0.39753,0.18203zM72.7441,148.81594c-0.58692,1.73752 -1.20868,3.44855 -2.27664,5.10058c-0.48806,0.75498 -1.45253,1.22485 -1.70885,2.08654c-0.11599,0.38994 0.54603,0.60323 0.81904,0.90486c1.08253,2.05114 2.49519,3.05447 5.07936,2.8353c1.13475,-0.09624 2.1572,-0.77814 3.28431,-0.94104c2.0605,-0.29781 4.16596,0.252 6.24434,0.13098c0.09429,-0.00549 3.5797,-0.31642 3.92628,-1.17011c0.13343,-0.32868 -0.71955,0.09626 -1.06413,0.01196c-0.52166,-0.12761 -0.98964,-0.41759 -1.48091,-0.63454c-1.195,-0.52772 -2.47931,-0.89241 -3.57779,-1.59942c-1.51442,-0.97473 -2.19105,-2.88957 -3.54414,-4.07816c-1.27438,-1.11944 -3.19776,-1.17225 -4.68207,-1.99322c-0.3533,-0.19541 -0.69078,-0.41685 -1.01879,-0.65374zM63.41615,145.14609c-0.04524,-0.04906 -0.09015,-0.09885 -0.13481,-0.14921c-0.12095,0.11139 -0.24251,0.22225 -0.36466,0.3326c0.1664,-0.06099 0.3329,-0.12209 0.49946,-0.18338zM65.45608,137.09112c-0.74725,0.61297 -1.49548,1.22478 -2.24732,1.83249l0.45629,0.40915c0.62963,-0.71988 1.22902,-1.46519 1.79103,-2.24164z" fill="#ce0000"/></g></g></svg>